<?xml version="1.0" encoding="UTF-8" standalone="no"?>
<svg
   xmlns:dc="http://purl.org/dc/elements/1.1/"
   xmlns:cc="http://creativecommons.org/ns#"
   xmlns:rdf="http://www.w3.org/1999/02/22-rdf-syntax-ns#"
   xmlns:svg="http://www.w3.org/2000/svg"
   xmlns="http://www.w3.org/2000/svg"
   xmlns:sodipodi="http://sodipodi.sourceforge.net/DTD/sodipodi-0.dtd"
   xmlns:inkscape="http://www.inkscape.org/namespaces/inkscape"
   inkscape:version="1.0 (4035a4fb49, 2020-05-01)"
   sodipodi:docname="AND2X1.svg"
   id="svg209"
   version="1.1"
   viewBox="-13.5 -110.5 118.0 121.0"
   height="121.0"
   width="118.0">
  <metadata
     id="metadata213">
    <rdf:RDF>
      <cc:Work
         rdf:about="">
        <dc:format>image/svg+xml</dc:format>
        <dc:type
           rdf:resource="http://purl.org/dc/dcmitype/StillImage" />
      </cc:Work>
    </rdf:RDF>
  </metadata>
  <sodipodi:namedview
     inkscape:current-layer="svg209"
     inkscape:window-maximized="0"
     inkscape:window-y="18"
     inkscape:window-x="1680"
     inkscape:cy="60.5"
     inkscape:cx="59"
     inkscape:zoom="7.3471074"
     showgrid="false"
     id="namedview211"
     inkscape:window-height="1041"
     inkscape:window-width="1916"
     inkscape:pageshadow="2"
     inkscape:pageopacity="0"
     guidetolerance="10"
     gridtolerance="10"
     objecttolerance="10"
     borderopacity="1"
     bordercolor="#666666"
     pagecolor="#ffffff" />
  <defs
     id="defs26">
    <style
       id="style2"
       type="text/css">
.l41d0 {fill: white; stroke: none; }
.l42d0 {font-variation-settings: normal; opacity: 1; vector-effect: none; fill: url(#NwellPattern); fill-opacity: 1; stroke: #000000; stroke-width: 0.0mm; stroke-linecap: butt; stroke-linejoin: miter; stroke-miterlimit: 4; stroke-dasharray: none; stroke-dashoffset: 0; stroke-opacity: 1; stop-color: #000000; stop-opacity: 1; }
.l43d0 {fill: gray; stroke: gray; opacity: 0.8; }
.l47d0 {fill: #db00c8; stroke: #3800b9; opacity: 1.0; }
.l48d0 {fill: white; stroke: black; }
.l50d0 {fill: #ff00ff; stroke: #0000ff; opacity: 1.0; }
.l46d0 {fill: #bf1500; stroke: #bf1500; opacity: 0.9; }
.l49d0 {font-variation-settings: normal; opacity: 1; vector-effect: none; fill: url(#M1Pattern); fill-opacity: 1; stroke: #000000; stroke-width: 0.0mm; stroke-linecap: butt; stroke-linejoin: miter; stroke-miterlimit: 4; stroke-dasharray: none; stroke-dashoffset: 0; stroke-opacity: 1; stop-color: #000000; stop-opacity: 1; }
.l51d0 {font-variation-settings: normal; opacity: 1; vector-effect: none; fill: url(#M2Pattern); fill-opacity: 1; stroke: #000000; stroke-width: 0.0mm; stroke-linecap: butt; stroke-linejoin: miter; stroke-miterlimit: 4; stroke-dasharray: none; stroke-dashoffset: 0; stroke-opacity: 1; stop-color: #000000; stop-opacity: 1; }
.l31d0 {fill: white; opacity: 0.0; }
.l44d0 {fill: #fba940; stroke: none; opacity: 0.0; }
.l45d0 {fill: #8aff4a; stroke: none; opacity: 0.0; }
</style>
    <pattern
       patternUnits="userSpaceOnUse"
       height="0.7086614173228347"
       width="0.7086614173228347"
       y="0"
       x="0"
       inkscape:stockid="M1 pattern"
       id="M1Pattern">
      <path
         id="path4"
         d="M -3.5433070866141736,4.251968503937008 4.251968503937008,-3.5433070866141736"
         style="stroke:#4da5ff;stroke-width:0.05mm" />
      <path
         id="path6"
         d="M -3.5433070866141736,-3.5433070866141736 4.251968503937008,4.251968503937008"
         style="stroke:#4da5ff;stroke-width:0.05mm" />
    </pattern>
    <pattern
       patternUnits="userSpaceOnUse"
       height="0.7086614173228347"
       width="0.7086614173228347"
       y="0"
       x="0"
       inkscape:stockid="M2 pattern"
       id="M2Pattern">
      <path
         id="path9"
         d="M -3.5433070866141736,4.251968503937008 4.251968503937008,-3.5433070866141736"
         style="stroke:#e28bff;stroke-width:0.05mm" />
      <path
         id="path11"
         d="M -3.5433070866141736,-3.5433070866141736 4.251968503937008,4.251968503937008"
         style="stroke:#e28bff;stroke-width:0.05mm" />
    </pattern>
    <pattern
       patternUnits="userSpaceOnUse"
       height="0.8427451996082276"
       width="0.8427451996082276"
       y="0"
       x="0"
       inkscape:stockid="Cross hatch 0.2"
       id="DiffusionPattern">
      <path
         id="path14"
         d="M -3.5433070866141736,4.386052286222402 4.386052286222402,-3.5433070866141736"
         style="stroke:#000000;stroke-width:0.05mm" />
      <path
         id="path16"
         d="M -3.5433070866141736,-3.5433070866141736 4.386052286222402,4.386052286222402"
         style="stroke:#000000;stroke-width:0.05mm" />
    </pattern>
    <pattern
       patternUnits="userSpaceOnUse"
       height="2.0043971750169858"
       width="2.0043971750169858"
       y="0"
       x="0"
       inkscape:stockid="Hatch 0.4 x 45°"
       id="NwellPattern">
      <path
         id="path19"
         d="M -3.5433070866141736,3.5433070866141736 3.5433070866141736,-3.5433070866141736"
         style="stroke:#000000;stroke-width:0.05mm" />
      <path
         id="path21"
         d="M -3.5433070866141736,5.547704261631159 5.547704261631159,-3.5433070866141736"
         style="stroke:#000000;stroke-width:0.05mm" />
      <path
         id="path23"
         d="M -1.5389099115971878,5.547704261631159 5.547704261631159,-1.5389099115971878"
         style="stroke:#000000;stroke-width:0.05mm" />
    </pattern>
  </defs>
  <g
     transform="rotate(180,16,50)"
     id="AND2X1">
    <polygon
       id="polygon28"
       points="40,105 -8,105 -8,48 40,48 "
       class="l42d0" />
    <polygon
       id="polygon30"
       points="25,32 -4,32 -4,22 25,22 "
       class="l41d0" />
    <polygon
       id="polygon32"
       points="33,22 -4,22 -4,5 33,5 "
       class="l41d0" />
    <polygon
       id="polygon34"
       points="33,5 -5,5 -5,0 33,0 "
       class="l41d0" />
    <polygon
       id="polygon36"
       points="21,0 -5,0 -5,-5 21,-5 "
       class="l41d0" />
    <polygon
       id="polygon38"
       points="4,104 -4,104 -4,96 4,96 "
       class="l45d0" />
    <polygon
       id="polygon40"
       points="20,104 12,104 12,96 20,96 "
       class="l45d0" />
    <polygon
       id="polygon42"
       points="21,28 0,28 0,18 21,18 "
       class="l45d0" />
    <polygon
       id="polygon44"
       points="29,18 0,18 0,4 29,4 "
       class="l45d0" />
    <polygon
       id="polygon46"
       points="32,96 0,96 0,72 32,72 "
       class="l44d0" />
    <polygon
       id="polygon48"
       points="4,4 -4,4 -4,-4 4,-4 "
       class="l44d0" />
    <polygon
       id="polygon50"
       points="20,4 12,4 12,-4 20,-4 "
       class="l44d0" />
    <polygon
       id="polygon52"
       points="2,102 -2,102 -2,98 2,98 "
       class="l43d0" />
    <polygon
       id="polygon54"
       points="18,102 14,102 14,98 18,98 "
       class="l43d0" />
    <polygon
       id="polygon56"
       points="30,94 2,94 2,74 30,74 "
       class="l43d0" />
    <polygon
       id="polygon58"
       points="19,26 2,26 2,16 19,16 "
       class="l43d0" />
    <polygon
       id="polygon60"
       points="27,16 2,16 2,6 27,6 "
       class="l43d0" />
    <polygon
       id="polygon62"
       points="2,2 -2,2 -2,-2 2,-2 "
       class="l43d0" />
    <polygon
       id="polygon64"
       points="18,2 14,2 14,-2 18,-2 "
       class="l43d0" />
    <polygon
       id="polygon66"
       points="1,101 -1,101 -1,99 1,99 "
       class="l48d0" />
    <polygon
       id="polygon68"
       points="17,101 15,101 15,99 17,99 "
       class="l48d0" />
    <polygon
       id="polygon70"
       points="5,24.5 3,24.5 3,22.5 5,22.5 "
       class="l48d0" />
    <polygon
       id="polygon72"
       points="18,24.5 16,24.5 16,22.5 18,22.5 "
       class="l48d0" />
    <polygon
       id="polygon74"
       points="5,19.5 3,19.5 3,17.5 5,17.5 "
       class="l48d0" />
    <polygon
       id="polygon76"
       points="18,19.5 16,19.5 16,17.5 18,17.5 "
       class="l48d0" />
    <polygon
       id="polygon78"
       points="5,14.5 3,14.5 3,12.5 5,12.5 "
       class="l48d0" />
    <polygon
       id="polygon80"
       points="18,14.5 16,14.5 16,12.5 18,12.5 "
       class="l48d0" />
    <polygon
       id="polygon82"
       points="26,14.5 24,14.5 24,12.5 26,12.5 "
       class="l48d0" />
    <polygon
       id="polygon84"
       points="5,9.5 3,9.5 3,7.5 5,7.5 "
       class="l48d0" />
    <polygon
       id="polygon86"
       points="18,9.5 16,9.5 16,7.5 18,7.5 "
       class="l48d0" />
    <polygon
       id="polygon88"
       points="26,9.5 24,9.5 24,7.5 26,7.5 "
       class="l48d0" />
    <polygon
       id="polygon90"
       points="5,92.5 3,92.5 3,90.5 5,90.5 "
       class="l48d0" />
    <polygon
       id="polygon92"
       points="13,92.5 11,92.5 11,90.5 13,90.5 "
       class="l48d0" />
    <polygon
       id="polygon94"
       points="21,92.5 19,92.5 19,90.5 21,90.5 "
       class="l48d0" />
    <polygon
       id="polygon96"
       points="29,92.5 27,92.5 27,90.5 29,90.5 "
       class="l48d0" />
    <polygon
       id="polygon98"
       points="5,87.5 3,87.5 3,85.5 5,85.5 "
       class="l48d0" />
    <polygon
       id="polygon100"
       points="13,87.5 11,87.5 11,85.5 13,85.5 "
       class="l48d0" />
    <polygon
       id="polygon102"
       points="21,87.5 19,87.5 19,85.5 21,85.5 "
       class="l48d0" />
    <polygon
       id="polygon104"
       points="29,87.5 27,87.5 27,85.5 29,85.5 "
       class="l48d0" />
    <polygon
       id="polygon106"
       points="5,82.5 3,82.5 3,80.5 5,80.5 "
       class="l48d0" />
    <polygon
       id="polygon108"
       points="13,82.5 11,82.5 11,80.5 13,80.5 "
       class="l48d0" />
    <polygon
       id="polygon110"
       points="21,82.5 19,82.5 19,80.5 21,80.5 "
       class="l48d0" />
    <polygon
       id="polygon112"
       points="29,82.5 27,82.5 27,80.5 29,80.5 "
       class="l48d0" />
    <polygon
       id="polygon114"
       points="5,77.5 3,77.5 3,75.5 5,75.5 "
       class="l48d0" />
    <polygon
       id="polygon116"
       points="13,77.5 11,77.5 11,75.5 13,75.5 "
       class="l48d0" />
    <polygon
       id="polygon118"
       points="21,77.5 19,77.5 19,75.5 21,75.5 "
       class="l48d0" />
    <polygon
       id="polygon120"
       points="29,77.5 27,77.5 27,75.5 29,75.5 "
       class="l48d0" />
    <polygon
       id="polygon122"
       points="1,1 -1,1 -1,-1 1,-1 "
       class="l48d0" />
    <polygon
       id="polygon124"
       points="17,1 15,1 15,-1 17,-1 "
       class="l48d0" />
    <polygon
       id="polygon126"
       points="9,96 7,96 7,41 9,41 "
       class="l46d0" />
    <polygon
       id="polygon128"
       points="17,96 15,96 15,53 17,53 "
       class="l46d0" />
    <polygon
       id="polygon130"
       points="17,53 13,53 13,49 17,49 "
       class="l46d0" />
    <polygon
       id="polygon132"
       points="9,41 2,41 2,37 9,37 "
       class="l46d0" />
    <polygon
       id="polygon134"
       points="17,49 15,49 15,39 17,39 "
       class="l46d0" />
    <polygon
       id="polygon136"
       points="9,37 7,37 7,4 9,4 "
       class="l46d0" />
    <polygon
       id="polygon138"
       points="17,39 12,39 12,37 17,37 "
       class="l46d0" />
    <polygon
       id="polygon140"
       points="14,37 12,37 12,4 14,4 "
       class="l46d0" />
    <polygon
       id="polygon142"
       points="25,96 23,96 23,33 25,33 "
       class="l46d0" />
    <polygon
       id="polygon144"
       points="25,33 20,33 20,30 25,30 "
       class="l46d0" />
    <polygon
       id="polygon146"
       points="24,30 20,30 20,29 24,29 "
       class="l46d0" />
    <polygon
       id="polygon148"
       points="22,29 20,29 20,4 22,4 "
       class="l46d0" />
    <polygon
       id="polygon150"
       points="16,52 14,52 14,50 16,50 "
       class="l47d0" />
    <polygon
       id="polygon152"
       points="5,40 3,40 3,38 5,38 "
       class="l47d0" />
    <polygon
       id="polygon154"
       points="23,32 21,32 21,30 23,30 "
       class="l47d0" />
    <polygon
       id="polygon156"
       points="34,103 -2,103 -2,97 34,97 "
       class="l49d0" />
    <polygon
       id="polygon158"
       points="6,97 2,97 2,74 6,74 "
       class="l49d0" />
    <polygon
       id="polygon160"
       points="14,94 10,94 10,74 14,74 "
       class="l49d0" />
    <polygon
       id="polygon162"
       points="22,97 18,97 18,74 22,74 "
       class="l49d0" />
    <polygon
       id="polygon164"
       points="30,94 26,94 26,74 30,74 "
       class="l49d0" />
    <polygon
       id="polygon166"
       points="14,74 11,74 11,71 14,71 "
       class="l49d0" />
    <polygon
       id="polygon168"
       points="23,71 11,71 11,68 23,68 "
       class="l49d0" />
    <polygon
       id="polygon170"
       points="17,57 10,57 10,53 17,53 "
       class="l49d0" />
    <polygon
       id="polygon172"
       points="17,53 13,53 13,49 17,49 "
       class="l49d0" />
    <polygon
       id="polygon174"
       points="6,41 2,41 2,33 6,33 "
       class="l49d0" />
    <polygon
       id="polygon176"
       points="23,68 20,68 20,33 23,33 "
       class="l49d0" />
    <polygon
       id="polygon178"
       points="30,74 27,74 27,67 30,67 "
       class="l49d0" />
    <polygon
       id="polygon180"
       points="30,67 26,67 26,63 30,63 "
       class="l49d0" />
    <polygon
       id="polygon182"
       points="24,33 9,33 9,30 24,30 "
       class="l49d0" />
    <polygon
       id="polygon184"
       points="12,30 9,30 9,29 12,29 "
       class="l49d0" />
    <polygon
       id="polygon186"
       points="24,30 20,30 20,29 24,29 "
       class="l49d0" />
    <polygon
       id="polygon188"
       points="12,29 3,29 3,26 12,26 "
       class="l49d0" />
    <polygon
       id="polygon190"
       points="6,26 2,26 2,6 6,6 "
       class="l49d0" />
    <polygon
       id="polygon192"
       points="19,26 15,26 15,3 19,3 "
       class="l49d0" />
    <polygon
       id="polygon194"
       points="30,63 27,63 27,19 30,19 "
       class="l49d0" />
    <polygon
       id="polygon196"
       points="30,19 23,19 23,16 30,16 "
       class="l49d0" />
    <polygon
       id="polygon198"
       points="27,16 23,16 23,6 27,6 "
       class="l49d0" />
    <polygon
       id="polygon200"
       points="34,3 -2,3 -2,-3 34,-3 "
       class="l49d0" />
    <polygon
       id="polygon202"
       points="30,67 26,67 26,63 30,63 "
       class="l81d0" />
    <polygon
       id="polygon204"
       points="14,57 10,57 10,53 14,53 "
       class="l81d0" />
    <polygon
       id="polygon206"
       points="6,37 2,37 2,33 6,33 "
       class="l81d0" />
  </g>
</svg>
