<?xml version="1.0" encoding="UTF-8" standalone="no"?>
<svg
   xmlns:dc="http://purl.org/dc/elements/1.1/"
   xmlns:cc="http://creativecommons.org/ns#"
   xmlns:rdf="http://www.w3.org/1999/02/22-rdf-syntax-ns#"
   xmlns:svg="http://www.w3.org/2000/svg"
   xmlns="http://www.w3.org/2000/svg"
   xmlns:sodipodi="http://sodipodi.sourceforge.net/DTD/sodipodi-0.dtd"
   xmlns:inkscape="http://www.inkscape.org/namespaces/inkscape"
   sodipodi:docname="AND2X1.svg"
   id="svg209"
   version="1.1"
   viewBox="-13.5 -110.5 118.0 121.0"
   height="121.0"
   width="118.0">
  <metadata
     id="metadata213">
    <rdf:RDF>
      <cc:Work
         rdf:about="">
        <dc:format>image/svg+xml</dc:format>
        <dc:type
           rdf:resource="http://purl.org/dc/dcmitype/StillImage" />
      </cc:Work>
    </rdf:RDF>
  </metadata>
  <sodipodi:namedview
     id="namedview211"
     inkscape:window-height="480"
     inkscape:window-width="640"
     inkscape:pageshadow="2"
     inkscape:pageopacity="0"
     guidetolerance="10"
     gridtolerance="10"
     objecttolerance="10"
     borderopacity="1"
     bordercolor="#666666"
     pagecolor="#ffffff" />
  <defs
     id="defs26">
    <style
       id="style2"
       type="text/css">
.l41d0 {fill: white; stroke: none; }
.l42d0 {font-variation-settings: normal; opacity: 1; vector-effect: none; fill: url(#NwellPattern); fill-opacity: 1; stroke: #000000; stroke-width: 0.0mm; stroke-linecap: butt; stroke-linejoin: miter; stroke-miterlimit: 4; stroke-dasharray: none; stroke-dashoffset: 0; stroke-opacity: 1; stop-color: #000000; stop-opacity: 1; }
.l43d0 {fill: gray; stroke: gray; opacity: 0.8; }
.l47d0 {fill: #db00c8; stroke: #3800b9; opacity: 1.0; }
.l48d0 {fill: white; stroke: black; }
.l50d0 {fill: #ff00ff; stroke: #0000ff; opacity: 1.0; }
.l46d0 {fill: #bf1500; stroke: #bf1500; opacity: 0.9; }
.l49d0 {font-variation-settings: normal; opacity: 1; vector-effect: none; fill: url(#M1Pattern); fill-opacity: 1; stroke: #000000; stroke-width: 0.0mm; stroke-linecap: butt; stroke-linejoin: miter; stroke-miterlimit: 4; stroke-dasharray: none; stroke-dashoffset: 0; stroke-opacity: 1; stop-color: #000000; stop-opacity: 1; }
.l51d0 {font-variation-settings: normal; opacity: 1; vector-effect: none; fill: url(#M2Pattern); fill-opacity: 1; stroke: #000000; stroke-width: 0.0mm; stroke-linecap: butt; stroke-linejoin: miter; stroke-miterlimit: 4; stroke-dasharray: none; stroke-dashoffset: 0; stroke-opacity: 1; stop-color: #000000; stop-opacity: 1; }
.l31d0 {fill: white; opacity: 0.0; }
.l44d0 {fill: #fba940; stroke: none; opacity: 0.0; }
.l45d0 {fill: #8aff4a; stroke: none; opacity: 0.0; }
</style>
    <pattern
       patternUnits="userSpaceOnUse"
       height="0.7086614173228347"
       width="0.7086614173228347"
       y="0"
       x="0"
       inkscape:stockid="M1 pattern"
       id="M1Pattern">
      <path
         id="path4"
         d="M -3.5433070866141736,4.251968503937008 4.251968503937008,-3.5433070866141736"
         style="stroke:#4da5ff;stroke-width:0.05mm" />
      <path
         id="path6"
         d="M -3.5433070866141736,-3.5433070866141736 4.251968503937008,4.251968503937008"
         style="stroke:#4da5ff;stroke-width:0.05mm" />
    </pattern>
    <pattern
       patternUnits="userSpaceOnUse"
       height="0.7086614173228347"
       width="0.7086614173228347"
       y="0"
       x="0"
       inkscape:stockid="M2 pattern"
       id="M2Pattern">
      <path
         id="path9"
         d="M -3.5433070866141736,4.251968503937008 4.251968503937008,-3.5433070866141736"
         style="stroke:#e28bff;stroke-width:0.05mm" />
      <path
         id="path11"
         d="M -3.5433070866141736,-3.5433070866141736 4.251968503937008,4.251968503937008"
         style="stroke:#e28bff;stroke-width:0.05mm" />
    </pattern>
    <pattern
       patternUnits="userSpaceOnUse"
       height="0.8427451996082276"
       width="0.8427451996082276"
       y="0"
       x="0"
       inkscape:stockid="Cross hatch 0.2"
       id="DiffusionPattern">
      <path
         id="path14"
         d="M -3.5433070866141736,4.386052286222402 4.386052286222402,-3.5433070866141736"
         style="stroke:#000000;stroke-width:0.05mm" />
      <path
         id="path16"
         d="M -3.5433070866141736,-3.5433070866141736 4.386052286222402,4.386052286222402"
         style="stroke:#000000;stroke-width:0.05mm" />
    </pattern>
    <pattern
       patternUnits="userSpaceOnUse"
       height="2.0043971750169858"
       width="2.0043971750169858"
       y="0"
       x="0"
       inkscape:stockid="Hatch 0.4 x 45°"
       id="NwellPattern">
      <path
         id="path19"
         d="M -3.5433070866141736,3.5433070866141736 3.5433070866141736,-3.5433070866141736"
         style="stroke:#000000;stroke-width:0.05mm" />
      <path
         id="path21"
         d="M -3.5433070866141736,5.547704261631159 5.547704261631159,-3.5433070866141736"
         style="stroke:#000000;stroke-width:0.05mm" />
      <path
         id="path23"
         d="M -1.5389099115971878,5.547704261631159 5.547704261631159,-1.5389099115971878"
         style="stroke:#000000;stroke-width:0.05mm" />
    </pattern>
  </defs>
  <g
     id="AND2X1">
    <polygon
       id="polygon28"
       points="-8.0,48.0 40.0,48.0 40.0,105.0 -8.0,105.0"
       class="l42d0" />
    <polygon
       id="polygon30"
       points="-4.0,22.0 25.0,22.0 25.0,32.0 -4.0,32.0"
       class="l41d0" />
    <polygon
       id="polygon32"
       points="-4.0,5.0 33.0,5.0 33.0,22.0 -4.0,22.0"
       class="l41d0" />
    <polygon
       id="polygon34"
       points="-5.0,0.0 33.0,0.0 33.0,5.0 -5.0,5.0"
       class="l41d0" />
    <polygon
       id="polygon36"
       points="-5.0,-5.0 21.0,-5.0 21.0,0.0 -5.0,0.0"
       class="l41d0" />
    <polygon
       id="polygon38"
       points="-4.0,96.0 4.0,96.0 4.0,104.0 -4.0,104.0"
       class="l45d0" />
    <polygon
       id="polygon40"
       points="12.0,96.0 20.0,96.0 20.0,104.0 12.0,104.0"
       class="l45d0" />
    <polygon
       id="polygon42"
       points="0.0,18.0 21.0,18.0 21.0,28.000000000000004 0.0,28.000000000000004"
       class="l45d0" />
    <polygon
       id="polygon44"
       points="0.0,4.0 29.0,4.0 29.0,18.0 0.0,18.0"
       class="l45d0" />
    <polygon
       id="polygon46"
       points="0.0,72.0 32.0,72.0 32.0,96.0 0.0,96.0"
       class="l44d0" />
    <polygon
       id="polygon48"
       points="-4.0,-4.0 4.0,-4.0 4.0,4.0 -4.0,4.0"
       class="l44d0" />
    <polygon
       id="polygon50"
       points="12.0,-4.0 20.0,-4.0 20.0,4.0 12.0,4.0"
       class="l44d0" />
    <polygon
       id="polygon52"
       points="-2.0,98.0 2.0,98.0 2.0,102.00000000000001 -2.0,102.00000000000001"
       class="l43d0" />
    <polygon
       id="polygon54"
       points="14.000000000000002,98.0 18.0,98.0 18.0,102.00000000000001 14.000000000000002,102.00000000000001"
       class="l43d0" />
    <polygon
       id="polygon56"
       points="2.0,74.0 30.0,74.0 30.0,94.0 2.0,94.0"
       class="l43d0" />
    <polygon
       id="polygon58"
       points="2.0,16.0 19.0,16.0 19.0,26.0 2.0,26.0"
       class="l43d0" />
    <polygon
       id="polygon60"
       points="2.0,6.0 27.0,6.0 27.0,16.0 2.0,16.0"
       class="l43d0" />
    <polygon
       id="polygon62"
       points="-2.0,-2.0 2.0,-2.0 2.0,2.0 -2.0,2.0"
       class="l43d0" />
    <polygon
       id="polygon64"
       points="14.000000000000002,-2.0 18.0,-2.0 18.0,2.0 14.000000000000002,2.0"
       class="l43d0" />
    <polygon
       id="polygon66"
       points="-1.0,99.0 1.0,99.0 1.0,101.0 -1.0,101.0"
       class="l48d0" />
    <polygon
       id="polygon68"
       points="15.0,99.0 17.0,99.0 17.0,101.0 15.0,101.0"
       class="l48d0" />
    <polygon
       id="polygon70"
       points="3.0,22.5 5.0,22.5 5.0,24.5 3.0,24.5"
       class="l48d0" />
    <polygon
       id="polygon72"
       points="16.0,22.5 18.0,22.5 18.0,24.5 16.0,24.5"
       class="l48d0" />
    <polygon
       id="polygon74"
       points="3.0,17.5 5.0,17.5 5.0,19.5 3.0,19.5"
       class="l48d0" />
    <polygon
       id="polygon76"
       points="16.0,17.5 18.0,17.5 18.0,19.5 16.0,19.5"
       class="l48d0" />
    <polygon
       id="polygon78"
       points="3.0,12.5 5.0,12.5 5.0,14.5 3.0,14.5"
       class="l48d0" />
    <polygon
       id="polygon80"
       points="16.0,12.5 18.0,12.5 18.0,14.5 16.0,14.5"
       class="l48d0" />
    <polygon
       id="polygon82"
       points="24.0,12.5 26.0,12.5 26.0,14.5 24.0,14.5"
       class="l48d0" />
    <polygon
       id="polygon84"
       points="3.0,7.5 5.0,7.5 5.0,9.5 3.0,9.5"
       class="l48d0" />
    <polygon
       id="polygon86"
       points="16.0,7.5 18.0,7.5 18.0,9.5 16.0,9.5"
       class="l48d0" />
    <polygon
       id="polygon88"
       points="24.0,7.5 26.0,7.5 26.0,9.5 24.0,9.5"
       class="l48d0" />
    <polygon
       id="polygon90"
       points="3.0,90.5 5.0,90.5 5.0,92.5 3.0,92.5"
       class="l48d0" />
    <polygon
       id="polygon92"
       points="11.0,90.5 13.0,90.5 13.0,92.5 11.0,92.5"
       class="l48d0" />
    <polygon
       id="polygon94"
       points="19.0,90.5 21.0,90.5 21.0,92.5 19.0,92.5"
       class="l48d0" />
    <polygon
       id="polygon96"
       points="27.0,90.5 29.0,90.5 29.0,92.5 27.0,92.5"
       class="l48d0" />
    <polygon
       id="polygon98"
       points="3.0,85.5 5.0,85.5 5.0,87.5 3.0,87.5"
       class="l48d0" />
    <polygon
       id="polygon100"
       points="11.0,85.5 13.0,85.5 13.0,87.5 11.0,87.5"
       class="l48d0" />
    <polygon
       id="polygon102"
       points="19.0,85.5 21.0,85.5 21.0,87.5 19.0,87.5"
       class="l48d0" />
    <polygon
       id="polygon104"
       points="27.0,85.5 29.0,85.5 29.0,87.5 27.0,87.5"
       class="l48d0" />
    <polygon
       id="polygon106"
       points="3.0,80.5 5.0,80.5 5.0,82.5 3.0,82.5"
       class="l48d0" />
    <polygon
       id="polygon108"
       points="11.0,80.5 13.0,80.5 13.0,82.5 11.0,82.5"
       class="l48d0" />
    <polygon
       id="polygon110"
       points="19.0,80.5 21.0,80.5 21.0,82.5 19.0,82.5"
       class="l48d0" />
    <polygon
       id="polygon112"
       points="27.0,80.5 29.0,80.5 29.0,82.5 27.0,82.5"
       class="l48d0" />
    <polygon
       id="polygon114"
       points="3.0,75.5 5.0,75.5 5.0,77.5 3.0,77.5"
       class="l48d0" />
    <polygon
       id="polygon116"
       points="11.0,75.5 13.0,75.5 13.0,77.5 11.0,77.5"
       class="l48d0" />
    <polygon
       id="polygon118"
       points="19.0,75.5 21.0,75.5 21.0,77.5 19.0,77.5"
       class="l48d0" />
    <polygon
       id="polygon120"
       points="27.0,75.5 29.0,75.5 29.0,77.5 27.0,77.5"
       class="l48d0" />
    <polygon
       id="polygon122"
       points="-1.0,-1.0 1.0,-1.0 1.0,1.0 -1.0,1.0"
       class="l48d0" />
    <polygon
       id="polygon124"
       points="15.0,-1.0 17.0,-1.0 17.0,1.0 15.0,1.0"
       class="l48d0" />
    <polygon
       id="polygon126"
       points="7.000000000000001,41.0 9.0,41.0 9.0,96.0 7.000000000000001,96.0"
       class="l46d0" />
    <polygon
       id="polygon128"
       points="15.0,53.0 17.0,53.0 17.0,96.0 15.0,96.0"
       class="l46d0" />
    <polygon
       id="polygon130"
       points="13.0,49.0 17.0,49.0 17.0,53.0 13.0,53.0"
       class="l46d0" />
    <polygon
       id="polygon132"
       points="2.0,37.0 9.0,37.0 9.0,41.0 2.0,41.0"
       class="l46d0" />
    <polygon
       id="polygon134"
       points="15.0,39.0 17.0,39.0 17.0,49.0 15.0,49.0"
       class="l46d0" />
    <polygon
       id="polygon136"
       points="7.000000000000001,4.0 9.0,4.0 9.0,37.0 7.000000000000001,37.0"
       class="l46d0" />
    <polygon
       id="polygon138"
       points="12.0,37.0 17.0,37.0 17.0,39.0 12.0,39.0"
       class="l46d0" />
    <polygon
       id="polygon140"
       points="12.0,4.0 14.000000000000002,4.0 14.000000000000002,37.0 12.0,37.0"
       class="l46d0" />
    <polygon
       id="polygon142"
       points="23.000000000000004,33.0 25.0,33.0 25.0,96.0 23.000000000000004,96.0"
       class="l46d0" />
    <polygon
       id="polygon144"
       points="20.0,30.0 25.0,30.0 25.0,33.0 20.0,33.0"
       class="l46d0" />
    <polygon
       id="polygon146"
       points="20.0,29.0 24.0,29.0 24.0,30.0 20.0,30.0"
       class="l46d0" />
    <polygon
       id="polygon148"
       points="20.0,4.0 22.0,4.0 22.0,29.0 20.0,29.0"
       class="l46d0" />
    <polygon
       id="polygon150"
       points="14.000000000000002,50.0 16.0,50.0 16.0,52.0 14.000000000000002,52.0"
       class="l47d0" />
    <polygon
       id="polygon152"
       points="3.0,38.0 5.0,38.0 5.0,40.0 3.0,40.0"
       class="l47d0" />
    <polygon
       id="polygon154"
       points="21.0,30.0 23.000000000000004,30.0 23.000000000000004,32.0 21.0,32.0"
       class="l47d0" />
    <polygon
       id="polygon156"
       points="-2.0,97.00000000000001 34.0,97.00000000000001 34.0,103.0 -2.0,103.0"
       class="l49d0" />
    <polygon
       id="polygon158"
       points="2.0,74.0 6.0,74.0 6.0,97.00000000000001 2.0,97.00000000000001"
       class="l49d0" />
    <polygon
       id="polygon160"
       points="10.0,74.0 14.000000000000002,74.0 14.000000000000002,94.0 10.0,94.0"
       class="l49d0" />
    <polygon
       id="polygon162"
       points="18.0,74.0 22.0,74.0 22.0,97.00000000000001 18.0,97.00000000000001"
       class="l49d0" />
    <polygon
       id="polygon164"
       points="26.0,74.0 30.0,74.0 30.0,94.0 26.0,94.0"
       class="l49d0" />
    <polygon
       id="polygon166"
       points="11.0,71.0 14.000000000000002,71.0 14.000000000000002,74.0 11.0,74.0"
       class="l49d0" />
    <polygon
       id="polygon168"
       points="11.0,68.0 23.000000000000004,68.0 23.000000000000004,71.0 11.0,71.0"
       class="l49d0" />
    <polygon
       id="polygon170"
       points="10.0,53.0 17.0,53.0 17.0,57.0 10.0,57.0"
       class="l49d0" />
    <polygon
       id="polygon172"
       points="13.0,49.0 17.0,49.0 17.0,53.0 13.0,53.0"
       class="l49d0" />
    <polygon
       id="polygon174"
       points="2.0,33.0 6.0,33.0 6.0,41.0 2.0,41.0"
       class="l49d0" />
    <polygon
       id="polygon176"
       points="20.0,33.0 23.000000000000004,33.0 23.000000000000004,68.0 20.0,68.0"
       class="l49d0" />
    <polygon
       id="polygon178"
       points="27.0,67.0 30.0,67.0 30.0,74.0 27.0,74.0"
       class="l49d0" />
    <polygon
       id="polygon180"
       points="26.0,63.0 30.0,63.0 30.0,67.0 26.0,67.0"
       class="l49d0" />
    <polygon
       id="polygon182"
       points="9.0,30.0 24.0,30.0 24.0,33.0 9.0,33.0"
       class="l49d0" />
    <polygon
       id="polygon184"
       points="9.0,29.0 12.0,29.0 12.0,30.0 9.0,30.0"
       class="l49d0" />
    <polygon
       id="polygon186"
       points="20.0,29.0 24.0,29.0 24.0,30.0 20.0,30.0"
       class="l49d0" />
    <polygon
       id="polygon188"
       points="3.0,26.0 12.0,26.0 12.0,29.0 3.0,29.0"
       class="l49d0" />
    <polygon
       id="polygon190"
       points="2.0,6.0 6.0,6.0 6.0,26.0 2.0,26.0"
       class="l49d0" />
    <polygon
       id="polygon192"
       points="15.0,3.0 19.0,3.0 19.0,26.0 15.0,26.0"
       class="l49d0" />
    <polygon
       id="polygon194"
       points="27.0,19.0 30.0,19.0 30.0,63.0 27.0,63.0"
       class="l49d0" />
    <polygon
       id="polygon196"
       points="23.000000000000004,16.0 30.0,16.0 30.0,19.0 23.000000000000004,19.0"
       class="l49d0" />
    <polygon
       id="polygon198"
       points="23.000000000000004,6.0 27.0,6.0 27.0,16.0 23.000000000000004,16.0"
       class="l49d0" />
    <polygon
       id="polygon200"
       points="-2.0,-3.0 34.0,-3.0 34.0,3.0 -2.0,3.0"
       class="l49d0" />
    <polygon
       id="polygon202"
       points="26.0,63.0 30.0,63.0 30.0,67.0 26.0,67.0"
       class="l81d0" />
    <polygon
       id="polygon204"
       points="10.0,53.0 14.000000000000002,53.0 14.000000000000002,57.0 10.0,57.0"
       class="l81d0" />
    <polygon
       id="polygon206"
       points="2.0,33.0 6.0,33.0 6.0,37.0 2.0,37.0"
       class="l81d0" />
  </g>
</svg>
