<?xml version="1.0" encoding="UTF-8" standalone="no"?>
<svg
   xmlns:dc="http://purl.org/dc/elements/1.1/"
   xmlns:cc="http://creativecommons.org/ns#"
   xmlns:rdf="http://www.w3.org/1999/02/22-rdf-syntax-ns#"
   xmlns:svg="http://www.w3.org/2000/svg"
   xmlns="http://www.w3.org/2000/svg"
   xmlns:sodipodi="http://sodipodi.sourceforge.net/DTD/sodipodi-0.dtd"
   xmlns:inkscape="http://www.inkscape.org/namespaces/inkscape"
   inkscape:version="1.0 (4035a4fb49, 2020-05-01)"
   sodipodi:docname="INVX1.svg"
   id="svg105"
   version="1.1"
   viewBox="-13.5 -110.5 118.0 121.0"
   height="121.0"
   width="118.0">
  <metadata
     id="metadata109">
    <rdf:RDF>
      <cc:Work
         rdf:about="">
        <dc:format>image/svg+xml</dc:format>
        <dc:type
           rdf:resource="http://purl.org/dc/dcmitype/StillImage" />
      </cc:Work>
    </rdf:RDF>
  </metadata>
  <sodipodi:namedview
     inkscape:current-layer="svg105"
     inkscape:window-maximized="0"
     inkscape:window-y="18"
     inkscape:window-x="1680"
     inkscape:cy="60.5"
     inkscape:cx="59"
     inkscape:zoom="7.3471074"
     showgrid="false"
     id="namedview107"
     inkscape:window-height="1041"
     inkscape:window-width="1916"
     inkscape:pageshadow="2"
     inkscape:pageopacity="0"
     guidetolerance="10"
     gridtolerance="10"
     objecttolerance="10"
     borderopacity="1"
     bordercolor="#666666"
     pagecolor="#ffffff" />
  <defs
     id="defs26">
    <style
       id="style2"
       type="text/css">
.l41d0 {fill: white; stroke: none; }
.l42d0 {font-variation-settings: normal; opacity: 1; vector-effect: none; fill: url(#NwellPattern); fill-opacity: 1; stroke: #000000; stroke-width: 0.0mm; stroke-linecap: butt; stroke-linejoin: miter; stroke-miterlimit: 4; stroke-dasharray: none; stroke-dashoffset: 0; stroke-opacity: 1; stop-color: #000000; stop-opacity: 1; }
.l43d0 {fill: gray; stroke: gray; opacity: 0.8; }
.l47d0 {fill: #db00c8; stroke: #3800b9; opacity: 1.0; }
.l48d0 {fill: white; stroke: black; }
.l50d0 {fill: #ff00ff; stroke: #0000ff; opacity: 1.0; }
.l46d0 {fill: #bf1500; stroke: #bf1500; opacity: 0.9; }
.l49d0 {font-variation-settings: normal; opacity: 1; vector-effect: none; fill: url(#M1Pattern); fill-opacity: 1; stroke: #000000; stroke-width: 0.0mm; stroke-linecap: butt; stroke-linejoin: miter; stroke-miterlimit: 4; stroke-dasharray: none; stroke-dashoffset: 0; stroke-opacity: 1; stop-color: #000000; stop-opacity: 1; }
.l51d0 {font-variation-settings: normal; opacity: 1; vector-effect: none; fill: url(#M2Pattern); fill-opacity: 1; stroke: #000000; stroke-width: 0.0mm; stroke-linecap: butt; stroke-linejoin: miter; stroke-miterlimit: 4; stroke-dasharray: none; stroke-dashoffset: 0; stroke-opacity: 1; stop-color: #000000; stop-opacity: 1; }
.l31d0 {fill: white; opacity: 0.0; }
.l44d0 {fill: #fba940; stroke: none; opacity: 0.0; }
.l45d0 {fill: #8aff4a; stroke: none; opacity: 0.0; }
</style>
    <pattern
       patternUnits="userSpaceOnUse"
       height="0.7086614173228347"
       width="0.7086614173228347"
       y="0"
       x="0"
       inkscape:stockid="M1 pattern"
       id="M1Pattern">
      <path
         id="path4"
         d="M -3.5433070866141736,4.251968503937008 4.251968503937008,-3.5433070866141736"
         style="stroke:#4da5ff;stroke-width:0.05mm" />
      <path
         id="path6"
         d="M -3.5433070866141736,-3.5433070866141736 4.251968503937008,4.251968503937008"
         style="stroke:#4da5ff;stroke-width:0.05mm" />
    </pattern>
    <pattern
       patternUnits="userSpaceOnUse"
       height="0.7086614173228347"
       width="0.7086614173228347"
       y="0"
       x="0"
       inkscape:stockid="M2 pattern"
       id="M2Pattern">
      <path
         id="path9"
         d="M -3.5433070866141736,4.251968503937008 4.251968503937008,-3.5433070866141736"
         style="stroke:#e28bff;stroke-width:0.05mm" />
      <path
         id="path11"
         d="M -3.5433070866141736,-3.5433070866141736 4.251968503937008,4.251968503937008"
         style="stroke:#e28bff;stroke-width:0.05mm" />
    </pattern>
    <pattern
       patternUnits="userSpaceOnUse"
       height="0.8427451996082276"
       width="0.8427451996082276"
       y="0"
       x="0"
       inkscape:stockid="Cross hatch 0.2"
       id="DiffusionPattern">
      <path
         id="path14"
         d="M -3.5433070866141736,4.386052286222402 4.386052286222402,-3.5433070866141736"
         style="stroke:#000000;stroke-width:0.05mm" />
      <path
         id="path16"
         d="M -3.5433070866141736,-3.5433070866141736 4.386052286222402,4.386052286222402"
         style="stroke:#000000;stroke-width:0.05mm" />
    </pattern>
    <pattern
       patternUnits="userSpaceOnUse"
       height="2.0043971750169858"
       width="2.0043971750169858"
       y="0"
       x="0"
       inkscape:stockid="Hatch 0.4 x 45°"
       id="NwellPattern">
      <path
         id="path19"
         d="M -3.5433070866141736,3.5433070866141736 3.5433070866141736,-3.5433070866141736"
         style="stroke:#000000;stroke-width:0.05mm" />
      <path
         id="path21"
         d="M -3.5433070866141736,5.547704261631159 5.547704261631159,-3.5433070866141736"
         style="stroke:#000000;stroke-width:0.05mm" />
      <path
         id="path23"
         d="M -1.5389099115971878,5.547704261631159 5.547704261631159,-1.5389099115971878"
         style="stroke:#000000;stroke-width:0.05mm" />
    </pattern>
  </defs>
  <g
     transform="rotate(180,8.5,50)"
     id="INVX1">
    <polygon
       id="polygon28"
       points="26,105 -9,105 -9,48 26,48 "
       class="l42d0" />
    <polygon
       id="polygon30"
       points="20,22 -4,22 -4,5 20,5 "
       class="l41d0" />
    <polygon
       id="polygon32"
       points="20,5 -5,5 -5,0 20,0 "
       class="l41d0" />
    <polygon
       id="polygon34"
       points="5,0 -5,0 -5,-5 5,-5 "
       class="l41d0" />
    <polygon
       id="polygon36"
       points="4,104 -4,104 -4,96 4,96 "
       class="l45d0" />
    <polygon
       id="polygon38"
       points="16,18 0,18 0,4 16,4 "
       class="l45d0" />
    <polygon
       id="polygon40"
       points="16,96 0,96 0,72 16,72 "
       class="l44d0" />
    <polygon
       id="polygon42"
       points="4,4 -4,4 -4,-4 4,-4 "
       class="l44d0" />
    <polygon
       id="polygon44"
       points="2,102 -2,102 -2,98 2,98 "
       class="l43d0" />
    <polygon
       id="polygon46"
       points="14,94 2,94 2,74 14,74 "
       class="l43d0" />
    <polygon
       id="polygon48"
       points="14,16 2,16 2,6 14,6 "
       class="l43d0" />
    <polygon
       id="polygon50"
       points="2,2 -2,2 -2,-2 2,-2 "
       class="l43d0" />
    <polygon
       id="polygon52"
       points="1,101 -1,101 -1,99 1,99 "
       class="l48d0" />
    <polygon
       id="polygon54"
       points="5,14 3,14 3,12 5,12 "
       class="l48d0" />
    <polygon
       id="polygon56"
       points="13,14 11,14 11,12 13,12 "
       class="l48d0" />
    <polygon
       id="polygon58"
       points="5,9 3,9 3,7 5,7 "
       class="l48d0" />
    <polygon
       id="polygon60"
       points="13,9 11,9 11,7 13,7 "
       class="l48d0" />
    <polygon
       id="polygon62"
       points="5,92 3,92 3,90 5,90 "
       class="l48d0" />
    <polygon
       id="polygon64"
       points="13,92 11,92 11,90 13,90 "
       class="l48d0" />
    <polygon
       id="polygon66"
       points="5,87 3,87 3,85 5,85 "
       class="l48d0" />
    <polygon
       id="polygon68"
       points="13,87 11,87 11,85 13,85 "
       class="l48d0" />
    <polygon
       id="polygon70"
       points="5,82 3,82 3,80 5,80 "
       class="l48d0" />
    <polygon
       id="polygon72"
       points="13,82 11,82 11,80 13,80 "
       class="l48d0" />
    <polygon
       id="polygon74"
       points="5,77 3,77 3,75 5,75 "
       class="l48d0" />
    <polygon
       id="polygon76"
       points="13,77 11,77 11,75 13,75 "
       class="l48d0" />
    <polygon
       id="polygon78"
       points="1,1 -1,1 -1,-1 1,-1 "
       class="l48d0" />
    <polygon
       id="polygon80"
       points="9,96 7,96 7,23 9,23 "
       class="l46d0" />
    <polygon
       id="polygon82"
       points="9,23 2,23 2,19 9,19 "
       class="l46d0" />
    <polygon
       id="polygon84"
       points="9,19 7,19 7,4 9,4 "
       class="l46d0" />
    <polygon
       id="polygon86"
       points="5,22 3,22 3,20 5,20 "
       class="l47d0" />
    <polygon
       id="polygon88"
       points="18,103 -2,103 -2,97 18,97 "
       class="l49d0" />
    <polygon
       id="polygon90"
       points="6,97 2,97 2,74 6,74 "
       class="l49d0" />
    <polygon
       id="polygon92"
       points="6,27 2,27 2,19 6,19 "
       class="l49d0" />
    <polygon
       id="polygon94"
       points="6,16 2,16 2,3 6,3 "
       class="l49d0" />
    <polygon
       id="polygon96"
       points="14,94 10,94 10,6 14,6 "
       class="l49d0" />
    <polygon
       id="polygon98"
       points="18,3 -2,3 -2,-3 18,-3 "
       class="l49d0" />
    <polygon
       id="polygon100"
       points="14,37 10,37 10,33 14,33 "
       class="l81d0" />
    <polygon
       id="polygon102"
       points="6,27 2,27 2,23 6,23 "
       class="l81d0" />
  </g>
</svg>
