<?xml version="1.0" encoding="UTF-8" standalone="no"?>
<svg
   xmlns:dc="http://purl.org/dc/elements/1.1/"
   xmlns:cc="http://creativecommons.org/ns#"
   xmlns:rdf="http://www.w3.org/1999/02/22-rdf-syntax-ns#"
   xmlns:svg="http://www.w3.org/2000/svg"
   xmlns="http://www.w3.org/2000/svg"
   xmlns:sodipodi="http://sodipodi.sourceforge.net/DTD/sodipodi-0.dtd"
   xmlns:inkscape="http://www.inkscape.org/namespaces/inkscape"
   inkscape:version="1.0 (4035a4fb49, 2020-05-01)"
   sodipodi:docname="NAND2X1.svg"
   id="svg155"
   version="1.1"
   viewBox="-13.5 -110.5 118.0 121.0"
   height="121.0"
   width="118.0">
  <metadata
     id="metadata159">
    <rdf:RDF>
      <cc:Work
         rdf:about="">
        <dc:format>image/svg+xml</dc:format>
        <dc:type
           rdf:resource="http://purl.org/dc/dcmitype/StillImage" />
      </cc:Work>
    </rdf:RDF>
  </metadata>
  <sodipodi:namedview
     inkscape:current-layer="svg155"
     inkscape:window-maximized="0"
     inkscape:window-y="18"
     inkscape:window-x="1680"
     inkscape:cy="60.5"
     inkscape:cx="59"
     inkscape:zoom="7.3471074"
     showgrid="false"
     id="namedview157"
     inkscape:window-height="1041"
     inkscape:window-width="1916"
     inkscape:pageshadow="2"
     inkscape:pageopacity="0"
     guidetolerance="10"
     gridtolerance="10"
     objecttolerance="10"
     borderopacity="1"
     bordercolor="#666666"
     pagecolor="#ffffff" />
  <defs
     id="defs26">
    <style
       id="style2"
       type="text/css">
.l41d0 {fill: white; stroke: none; }
.l42d0 {font-variation-settings: normal; opacity: 1; vector-effect: none; fill: url(#NwellPattern); fill-opacity: 1; stroke: #000000; stroke-width: 0.0mm; stroke-linecap: butt; stroke-linejoin: miter; stroke-miterlimit: 4; stroke-dasharray: none; stroke-dashoffset: 0; stroke-opacity: 1; stop-color: #000000; stop-opacity: 1; }
.l43d0 {fill: gray; stroke: gray; opacity: 0.8; }
.l47d0 {fill: #db00c8; stroke: #3800b9; opacity: 1.0; }
.l48d0 {fill: white; stroke: black; }
.l50d0 {fill: #ff00ff; stroke: #0000ff; opacity: 1.0; }
.l46d0 {fill: #bf1500; stroke: #bf1500; opacity: 0.9; }
.l49d0 {font-variation-settings: normal; opacity: 1; vector-effect: none; fill: url(#M1Pattern); fill-opacity: 1; stroke: #000000; stroke-width: 0.0mm; stroke-linecap: butt; stroke-linejoin: miter; stroke-miterlimit: 4; stroke-dasharray: none; stroke-dashoffset: 0; stroke-opacity: 1; stop-color: #000000; stop-opacity: 1; }
.l51d0 {font-variation-settings: normal; opacity: 1; vector-effect: none; fill: url(#M2Pattern); fill-opacity: 1; stroke: #000000; stroke-width: 0.0mm; stroke-linecap: butt; stroke-linejoin: miter; stroke-miterlimit: 4; stroke-dasharray: none; stroke-dashoffset: 0; stroke-opacity: 1; stop-color: #000000; stop-opacity: 1; }
.l31d0 {fill: white; opacity: 0.0; }
.l44d0 {fill: #fba940; stroke: none; opacity: 0.0; }
.l45d0 {fill: #8aff4a; stroke: none; opacity: 0.0; }
</style>
    <pattern
       patternUnits="userSpaceOnUse"
       height="0.7086614173228347"
       width="0.7086614173228347"
       y="0"
       x="0"
       inkscape:stockid="M1 pattern"
       id="M1Pattern">
      <path
         id="path4"
         d="M -3.5433070866141736,4.251968503937008 4.251968503937008,-3.5433070866141736"
         style="stroke:#4da5ff;stroke-width:0.05mm" />
      <path
         id="path6"
         d="M -3.5433070866141736,-3.5433070866141736 4.251968503937008,4.251968503937008"
         style="stroke:#4da5ff;stroke-width:0.05mm" />
    </pattern>
    <pattern
       patternUnits="userSpaceOnUse"
       height="0.7086614173228347"
       width="0.7086614173228347"
       y="0"
       x="0"
       inkscape:stockid="M2 pattern"
       id="M2Pattern">
      <path
         id="path9"
         d="M -3.5433070866141736,4.251968503937008 4.251968503937008,-3.5433070866141736"
         style="stroke:#e28bff;stroke-width:0.05mm" />
      <path
         id="path11"
         d="M -3.5433070866141736,-3.5433070866141736 4.251968503937008,4.251968503937008"
         style="stroke:#e28bff;stroke-width:0.05mm" />
    </pattern>
    <pattern
       patternUnits="userSpaceOnUse"
       height="0.8427451996082276"
       width="0.8427451996082276"
       y="0"
       x="0"
       inkscape:stockid="Cross hatch 0.2"
       id="DiffusionPattern">
      <path
         id="path14"
         d="M -3.5433070866141736,4.386052286222402 4.386052286222402,-3.5433070866141736"
         style="stroke:#000000;stroke-width:0.05mm" />
      <path
         id="path16"
         d="M -3.5433070866141736,-3.5433070866141736 4.386052286222402,4.386052286222402"
         style="stroke:#000000;stroke-width:0.05mm" />
    </pattern>
    <pattern
       patternUnits="userSpaceOnUse"
       height="2.0043971750169858"
       width="2.0043971750169858"
       y="0"
       x="0"
       inkscape:stockid="Hatch 0.4 x 45°"
       id="NwellPattern">
      <path
         id="path19"
         d="M -3.5433070866141736,3.5433070866141736 3.5433070866141736,-3.5433070866141736"
         style="stroke:#000000;stroke-width:0.05mm" />
      <path
         id="path21"
         d="M -3.5433070866141736,5.547704261631159 5.547704261631159,-3.5433070866141736"
         style="stroke:#000000;stroke-width:0.05mm" />
      <path
         id="path23"
         d="M -1.5389099115971878,5.547704261631159 5.547704261631159,-1.5389099115971878"
         style="stroke:#000000;stroke-width:0.05mm" />
    </pattern>
  </defs>
  <g
     transform="rotate(180,12,50)"
     id="NAND2X1">
    <polygon
       id="polygon28"
       points="32,105 -8,105 -8,48 32,48 "
       class="l42d0" />
    <polygon
       id="polygon30"
       points="25,32 -4,32 -4,5 25,5 "
       class="l41d0" />
    <polygon
       id="polygon32"
       points="25,5 -5,5 -5,0 25,0 "
       class="l41d0" />
    <polygon
       id="polygon34"
       points="21,0 -5,0 -5,-5 21,-5 "
       class="l41d0" />
    <polygon
       id="polygon36"
       points="4,104 -4,104 -4,96 4,96 "
       class="l45d0" />
    <polygon
       id="polygon38"
       points="20,104 12,104 12,96 20,96 "
       class="l45d0" />
    <polygon
       id="polygon40"
       points="21,28 0,28 0,4 21,4 "
       class="l45d0" />
    <polygon
       id="polygon42"
       points="24,96 0,96 0,72 24,72 "
       class="l44d0" />
    <polygon
       id="polygon44"
       points="4,4 -4,4 -4,-4 4,-4 "
       class="l44d0" />
    <polygon
       id="polygon46"
       points="20,4 12,4 12,-4 20,-4 "
       class="l44d0" />
    <polygon
       id="polygon48"
       points="2,102 -2,102 -2,98 2,98 "
       class="l43d0" />
    <polygon
       id="polygon50"
       points="18,102 14,102 14,98 18,98 "
       class="l43d0" />
    <polygon
       id="polygon52"
       points="22,94 2,94 2,74 22,74 "
       class="l43d0" />
    <polygon
       id="polygon54"
       points="19,26 2,26 2,6 19,6 "
       class="l43d0" />
    <polygon
       id="polygon56"
       points="2,2 -2,2 -2,-2 2,-2 "
       class="l43d0" />
    <polygon
       id="polygon58"
       points="18,2 14,2 14,-2 18,-2 "
       class="l43d0" />
    <polygon
       id="polygon60"
       points="1,101 -1,101 -1,99 1,99 "
       class="l48d0" />
    <polygon
       id="polygon62"
       points="17,101 15,101 15,99 17,99 "
       class="l48d0" />
    <polygon
       id="polygon64"
       points="5,24.5 3,24.5 3,22.5 5,22.5 "
       class="l48d0" />
    <polygon
       id="polygon66"
       points="18,24.5 16,24.5 16,22.5 18,22.5 "
       class="l48d0" />
    <polygon
       id="polygon68"
       points="5,19.5 3,19.5 3,17.5 5,17.5 "
       class="l48d0" />
    <polygon
       id="polygon70"
       points="18,19.5 16,19.5 16,17.5 18,17.5 "
       class="l48d0" />
    <polygon
       id="polygon72"
       points="5,14.5 3,14.5 3,12.5 5,12.5 "
       class="l48d0" />
    <polygon
       id="polygon74"
       points="18,14.5 16,14.5 16,12.5 18,12.5 "
       class="l48d0" />
    <polygon
       id="polygon76"
       points="5,9.5 3,9.5 3,7.5 5,7.5 "
       class="l48d0" />
    <polygon
       id="polygon78"
       points="18,9.5 16,9.5 16,7.5 18,7.5 "
       class="l48d0" />
    <polygon
       id="polygon80"
       points="5,92.5 3,92.5 3,90.5 5,90.5 "
       class="l48d0" />
    <polygon
       id="polygon82"
       points="13,92.5 11,92.5 11,90.5 13,90.5 "
       class="l48d0" />
    <polygon
       id="polygon84"
       points="21,92.5 19,92.5 19,90.5 21,90.5 "
       class="l48d0" />
    <polygon
       id="polygon86"
       points="5,87.5 3,87.5 3,85.5 5,85.5 "
       class="l48d0" />
    <polygon
       id="polygon88"
       points="13,87.5 11,87.5 11,85.5 13,85.5 "
       class="l48d0" />
    <polygon
       id="polygon90"
       points="21,87.5 19,87.5 19,85.5 21,85.5 "
       class="l48d0" />
    <polygon
       id="polygon92"
       points="5,82.5 3,82.5 3,80.5 5,80.5 "
       class="l48d0" />
    <polygon
       id="polygon94"
       points="13,82.5 11,82.5 11,80.5 13,80.5 "
       class="l48d0" />
    <polygon
       id="polygon96"
       points="21,82.5 19,82.5 19,80.5 21,80.5 "
       class="l48d0" />
    <polygon
       id="polygon98"
       points="5,77.5 3,77.5 3,75.5 5,75.5 "
       class="l48d0" />
    <polygon
       id="polygon100"
       points="13,77.5 11,77.5 11,75.5 13,75.5 "
       class="l48d0" />
    <polygon
       id="polygon102"
       points="21,77.5 19,77.5 19,75.5 21,75.5 "
       class="l48d0" />
    <polygon
       id="polygon104"
       points="1,1 -1,1 -1,-1 1,-1 "
       class="l48d0" />
    <polygon
       id="polygon106"
       points="17,1 15,1 15,-1 17,-1 "
       class="l48d0" />
    <polygon
       id="polygon108"
       points="9,96 7,96 7,33 9,33 "
       class="l46d0" />
    <polygon
       id="polygon110"
       points="9,33 2,33 2,29 9,29 "
       class="l46d0" />
    <polygon
       id="polygon112"
       points="17,96 15,96 15,61 17,61 "
       class="l46d0" />
    <polygon
       id="polygon114"
       points="22,61 15,61 15,57 22,57 "
       class="l46d0" />
    <polygon
       id="polygon116"
       points="17,57 15,57 15,29 17,29 "
       class="l46d0" />
    <polygon
       id="polygon118"
       points="9,29 7,29 7,4 9,4 "
       class="l46d0" />
    <polygon
       id="polygon120"
       points="17,29 12,29 12,27 17,27 "
       class="l46d0" />
    <polygon
       id="polygon122"
       points="14,27 12,27 12,4 14,4 "
       class="l46d0" />
    <polygon
       id="polygon124"
       points="21,60 19,60 19,58 21,58 "
       class="l47d0" />
    <polygon
       id="polygon126"
       points="5,32 3,32 3,30 5,30 "
       class="l47d0" />
    <polygon
       id="polygon128"
       points="26,103 -2,103 -2,97 26,97 "
       class="l49d0" />
    <polygon
       id="polygon130"
       points="6,97 2,97 2,74 6,74 "
       class="l49d0" />
    <polygon
       id="polygon132"
       points="6,37 2,37 2,29 6,29 "
       class="l49d0" />
    <polygon
       id="polygon134"
       points="14,94 10,94 10,26 14,26 "
       class="l49d0" />
    <polygon
       id="polygon136"
       points="22,97 18,97 18,74 22,74 "
       class="l49d0" />
    <polygon
       id="polygon138"
       points="22,61 18,61 18,53 22,53 "
       class="l49d0" />
    <polygon
       id="polygon140"
       points="6,26 2,26 2,3 6,3 "
       class="l49d0" />
    <polygon
       id="polygon142"
       points="19,26 10,26 10,23 19,23 "
       class="l49d0" />
    <polygon
       id="polygon144"
       points="19,23 15,23 15,6 19,6 "
       class="l49d0" />
    <polygon
       id="polygon146"
       points="26,3 -2,3 -2,-3 26,-3 "
       class="l49d0" />
    <polygon
       id="polygon148"
       points="22,57 18,57 18,53 22,53 "
       class="l81d0" />
    <polygon
       id="polygon150"
       points="14,47 10,47 10,43 14,43 "
       class="l81d0" />
    <polygon
       id="polygon152"
       points="6,37 2,37 2,33 6,33 "
       class="l81d0" />
  </g>
</svg>
