<?xml version="1.0" encoding="UTF-8" standalone="no"?>
<svg
   xmlns:dc="http://purl.org/dc/elements/1.1/"
   xmlns:cc="http://creativecommons.org/ns#"
   xmlns:rdf="http://www.w3.org/1999/02/22-rdf-syntax-ns#"
   xmlns:svg="http://www.w3.org/2000/svg"
   xmlns="http://www.w3.org/2000/svg"
   xmlns:sodipodi="http://sodipodi.sourceforge.net/DTD/sodipodi-0.dtd"
   xmlns:inkscape="http://www.inkscape.org/namespaces/inkscape"
   inkscape:version="1.0 (4035a4fb49, 2020-05-01)"
   sodipodi:docname="OR2X1.svg"
   id="svg213"
   version="1.1"
   viewBox="-13.5 -110.5 118.0 121.0"
   height="121.0"
   width="118.0">
  <metadata
     id="metadata217">
    <rdf:RDF>
      <cc:Work
         rdf:about="">
        <dc:format>image/svg+xml</dc:format>
        <dc:type
           rdf:resource="http://purl.org/dc/dcmitype/StillImage" />
      </cc:Work>
    </rdf:RDF>
  </metadata>
  <sodipodi:namedview
     inkscape:current-layer="svg213"
     inkscape:window-maximized="0"
     inkscape:window-y="18"
     inkscape:window-x="1680"
     inkscape:cy="60.5"
     inkscape:cx="59"
     inkscape:zoom="7.3471074"
     showgrid="false"
     id="namedview215"
     inkscape:window-height="1041"
     inkscape:window-width="1916"
     inkscape:pageshadow="2"
     inkscape:pageopacity="0"
     guidetolerance="10"
     gridtolerance="10"
     objecttolerance="10"
     borderopacity="1"
     bordercolor="#666666"
     pagecolor="#ffffff" />
  <defs
     id="defs26">
    <style
       id="style2"
       type="text/css">
.l41d0 {fill: white; stroke: none; }
.l42d0 {font-variation-settings: normal; opacity: 1; vector-effect: none; fill: url(#NwellPattern); fill-opacity: 1; stroke: #000000; stroke-width: 0.0mm; stroke-linecap: butt; stroke-linejoin: miter; stroke-miterlimit: 4; stroke-dasharray: none; stroke-dashoffset: 0; stroke-opacity: 1; stop-color: #000000; stop-opacity: 1; }
.l43d0 {fill: gray; stroke: gray; opacity: 0.8; }
.l47d0 {fill: #db00c8; stroke: #3800b9; opacity: 1.0; }
.l48d0 {fill: white; stroke: black; }
.l50d0 {fill: #ff00ff; stroke: #0000ff; opacity: 1.0; }
.l46d0 {fill: #bf1500; stroke: #bf1500; opacity: 0.9; }
.l49d0 {font-variation-settings: normal; opacity: 1; vector-effect: none; fill: url(#M1Pattern); fill-opacity: 1; stroke: #000000; stroke-width: 0.0mm; stroke-linecap: butt; stroke-linejoin: miter; stroke-miterlimit: 4; stroke-dasharray: none; stroke-dashoffset: 0; stroke-opacity: 1; stop-color: #000000; stop-opacity: 1; }
.l51d0 {font-variation-settings: normal; opacity: 1; vector-effect: none; fill: url(#M2Pattern); fill-opacity: 1; stroke: #000000; stroke-width: 0.0mm; stroke-linecap: butt; stroke-linejoin: miter; stroke-miterlimit: 4; stroke-dasharray: none; stroke-dashoffset: 0; stroke-opacity: 1; stop-color: #000000; stop-opacity: 1; }
.l31d0 {fill: white; opacity: 0.0; }
.l44d0 {fill: #fba940; stroke: none; opacity: 0.0; }
.l45d0 {fill: #8aff4a; stroke: none; opacity: 0.0; }
</style>
    <pattern
       patternUnits="userSpaceOnUse"
       height="0.7086614173228347"
       width="0.7086614173228347"
       y="0"
       x="0"
       inkscape:stockid="M1 pattern"
       id="M1Pattern">
      <path
         id="path4"
         d="M -3.5433070866141736,4.251968503937008 4.251968503937008,-3.5433070866141736"
         style="stroke:#4da5ff;stroke-width:0.05mm" />
      <path
         id="path6"
         d="M -3.5433070866141736,-3.5433070866141736 4.251968503937008,4.251968503937008"
         style="stroke:#4da5ff;stroke-width:0.05mm" />
    </pattern>
    <pattern
       patternUnits="userSpaceOnUse"
       height="0.7086614173228347"
       width="0.7086614173228347"
       y="0"
       x="0"
       inkscape:stockid="M2 pattern"
       id="M2Pattern">
      <path
         id="path9"
         d="M -3.5433070866141736,4.251968503937008 4.251968503937008,-3.5433070866141736"
         style="stroke:#e28bff;stroke-width:0.05mm" />
      <path
         id="path11"
         d="M -3.5433070866141736,-3.5433070866141736 4.251968503937008,4.251968503937008"
         style="stroke:#e28bff;stroke-width:0.05mm" />
    </pattern>
    <pattern
       patternUnits="userSpaceOnUse"
       height="0.8427451996082276"
       width="0.8427451996082276"
       y="0"
       x="0"
       inkscape:stockid="Cross hatch 0.2"
       id="DiffusionPattern">
      <path
         id="path14"
         d="M -3.5433070866141736,4.386052286222402 4.386052286222402,-3.5433070866141736"
         style="stroke:#000000;stroke-width:0.05mm" />
      <path
         id="path16"
         d="M -3.5433070866141736,-3.5433070866141736 4.386052286222402,4.386052286222402"
         style="stroke:#000000;stroke-width:0.05mm" />
    </pattern>
    <pattern
       patternUnits="userSpaceOnUse"
       height="2.0043971750169858"
       width="2.0043971750169858"
       y="0"
       x="0"
       inkscape:stockid="Hatch 0.4 x 45°"
       id="NwellPattern">
      <path
         id="path19"
         d="M -3.5433070866141736,3.5433070866141736 3.5433070866141736,-3.5433070866141736"
         style="stroke:#000000;stroke-width:0.05mm" />
      <path
         id="path21"
         d="M -3.5433070866141736,5.547704261631159 5.547704261631159,-3.5433070866141736"
         style="stroke:#000000;stroke-width:0.05mm" />
      <path
         id="path23"
         d="M -1.5389099115971878,5.547704261631159 5.547704261631159,-1.5389099115971878"
         style="stroke:#000000;stroke-width:0.05mm" />
    </pattern>
  </defs>
  <g
     transform="rotate(180,16,50)"
     id="OR2X1">
    <polygon
       id="polygon28"
       points="40,105 -8,105 -8,48 40,48 "
       class="l42d0" />
    <polygon
       id="polygon30"
       points="36,22 -4,22 -4,5 36,5 "
       class="l41d0" />
    <polygon
       id="polygon32"
       points="36,5 -5,5 -5,0 36,0 "
       class="l41d0" />
    <polygon
       id="polygon34"
       points="21,0 -5,0 -5,-5 21,-5 "
       class="l41d0" />
    <polygon
       id="polygon36"
       points="4,104 -4,104 -4,96 4,96 "
       class="l45d0" />
    <polygon
       id="polygon38"
       points="20,104 12,104 12,96 20,96 "
       class="l45d0" />
    <polygon
       id="polygon40"
       points="32,18 0,18 0,4 32,4 "
       class="l45d0" />
    <polygon
       id="polygon42"
       points="29,96 0,96 0,72 29,72 "
       class="l44d0" />
    <polygon
       id="polygon44"
       points="21,72 0,72 0,52 21,52 "
       class="l44d0" />
    <polygon
       id="polygon46"
       points="4,4 -4,4 -4,-4 4,-4 "
       class="l44d0" />
    <polygon
       id="polygon48"
       points="20,4 12,4 12,-4 20,-4 "
       class="l44d0" />
    <polygon
       id="polygon50"
       points="2,102 -2,102 -2,98 2,98 "
       class="l43d0" />
    <polygon
       id="polygon52"
       points="18,102 14,102 14,98 18,98 "
       class="l43d0" />
    <polygon
       id="polygon54"
       points="27,94 2,94 2,74 27,74 "
       class="l43d0" />
    <polygon
       id="polygon56"
       points="19,74 2,74 2,54 19,54 "
       class="l43d0" />
    <polygon
       id="polygon58"
       points="30,16 2,16 2,6 30,6 "
       class="l43d0" />
    <polygon
       id="polygon60"
       points="2,2 -2,2 -2,-2 2,-2 "
       class="l43d0" />
    <polygon
       id="polygon62"
       points="18,2 14,2 14,-2 18,-2 "
       class="l43d0" />
    <polygon
       id="polygon64"
       points="1,101 -1,101 -1,99 1,99 "
       class="l48d0" />
    <polygon
       id="polygon66"
       points="17,101 15,101 15,99 17,99 "
       class="l48d0" />
    <polygon
       id="polygon68"
       points="5,14.5 3,14.5 3,12.5 5,12.5 "
       class="l48d0" />
    <polygon
       id="polygon70"
       points="13,14.5 11,14.5 11,12.5 13,12.5 "
       class="l48d0" />
    <polygon
       id="polygon72"
       points="21,14.5 19,14.5 19,12.5 21,12.5 "
       class="l48d0" />
    <polygon
       id="polygon74"
       points="29,14.5 27,14.5 27,12.5 29,12.5 "
       class="l48d0" />
    <polygon
       id="polygon76"
       points="5,9.5 3,9.5 3,7.5 5,7.5 "
       class="l48d0" />
    <polygon
       id="polygon78"
       points="13,9.5 11,9.5 11,7.5 13,7.5 "
       class="l48d0" />
    <polygon
       id="polygon80"
       points="21,9.5 19,9.5 19,7.5 21,7.5 "
       class="l48d0" />
    <polygon
       id="polygon82"
       points="29,9.5 27,9.5 27,7.5 29,7.5 "
       class="l48d0" />
    <polygon
       id="polygon84"
       points="5,92.5 3,92.5 3,90.5 5,90.5 "
       class="l48d0" />
    <polygon
       id="polygon86"
       points="18,92.5 16,92.5 16,90.5 18,90.5 "
       class="l48d0" />
    <polygon
       id="polygon88"
       points="26,92.5 24,92.5 24,90.5 26,90.5 "
       class="l48d0" />
    <polygon
       id="polygon90"
       points="5,87.5 3,87.5 3,85.5 5,85.5 "
       class="l48d0" />
    <polygon
       id="polygon92"
       points="18,87.5 16,87.5 16,85.5 18,85.5 "
       class="l48d0" />
    <polygon
       id="polygon94"
       points="26,87.5 24,87.5 24,85.5 26,85.5 "
       class="l48d0" />
    <polygon
       id="polygon96"
       points="5,82.5 3,82.5 3,80.5 5,80.5 "
       class="l48d0" />
    <polygon
       id="polygon98"
       points="18,82.5 16,82.5 16,80.5 18,80.5 "
       class="l48d0" />
    <polygon
       id="polygon100"
       points="26,82.5 24,82.5 24,80.5 26,80.5 "
       class="l48d0" />
    <polygon
       id="polygon102"
       points="5,77.5 3,77.5 3,75.5 5,75.5 "
       class="l48d0" />
    <polygon
       id="polygon104"
       points="18,77.5 16,77.5 16,75.5 18,75.5 "
       class="l48d0" />
    <polygon
       id="polygon106"
       points="26,77.5 24,77.5 24,75.5 26,75.5 "
       class="l48d0" />
    <polygon
       id="polygon108"
       points="5,72.5 3,72.5 3,70.5 5,70.5 "
       class="l48d0" />
    <polygon
       id="polygon110"
       points="18,72.5 16,72.5 16,70.5 18,70.5 "
       class="l48d0" />
    <polygon
       id="polygon112"
       points="5,67.5 3,67.5 3,65.5 5,65.5 "
       class="l48d0" />
    <polygon
       id="polygon114"
       points="18,67.5 16,67.5 16,65.5 18,65.5 "
       class="l48d0" />
    <polygon
       id="polygon116"
       points="5,62.5 3,62.5 3,60.5 5,60.5 "
       class="l48d0" />
    <polygon
       id="polygon118"
       points="18,62.5 16,62.5 16,60.5 18,60.5 "
       class="l48d0" />
    <polygon
       id="polygon120"
       points="5,57.5 3,57.5 3,55.5 5,55.5 "
       class="l48d0" />
    <polygon
       id="polygon122"
       points="18,57.5 16,57.5 16,55.5 18,55.5 "
       class="l48d0" />
    <polygon
       id="polygon124"
       points="1,1 -1,1 -1,-1 1,-1 "
       class="l48d0" />
    <polygon
       id="polygon126"
       points="17,1 15,1 15,-1 17,-1 "
       class="l48d0" />
    <polygon
       id="polygon128"
       points="9,96 7,96 7,23 9,23 "
       class="l46d0" />
    <polygon
       id="polygon130"
       points="14,96 12,96 12,43 14,43 "
       class="l46d0" />
    <polygon
       id="polygon132"
       points="22,96 20,96 20,73 22,73 "
       class="l46d0" />
    <polygon
       id="polygon134"
       points="25,73 20,73 20,71 25,71 "
       class="l46d0" />
    <polygon
       id="polygon136"
       points="25,71 23,71 23,51 25,51 "
       class="l46d0" />
    <polygon
       id="polygon138"
       points="25,51 19,51 19,47 25,47 "
       class="l46d0" />
    <polygon
       id="polygon140"
       points="17,43 12,43 12,41 17,41 "
       class="l46d0" />
    <polygon
       id="polygon142"
       points="17,41 15,41 15,33 17,33 "
       class="l46d0" />
    <polygon
       id="polygon144"
       points="18,33 14,33 14,29 18,29 "
       class="l46d0" />
    <polygon
       id="polygon146"
       points="9,23 2,23 2,19 9,19 "
       class="l46d0" />
    <polygon
       id="polygon148"
       points="9,19 7,19 7,4 9,4 "
       class="l46d0" />
    <polygon
       id="polygon150"
       points="17,29 15,29 15,4 17,4 "
       class="l46d0" />
    <polygon
       id="polygon152"
       points="25,47 23,47 23,4 25,4 "
       class="l46d0" />
    <polygon
       id="polygon154"
       points="22,50 20,50 20,48 22,48 "
       class="l47d0" />
    <polygon
       id="polygon156"
       points="17,32 15,32 15,30 17,30 "
       class="l47d0" />
    <polygon
       id="polygon158"
       points="5,22 3,22 3,20 5,20 "
       class="l47d0" />
    <polygon
       id="polygon160"
       points="34,103 -2,103 -2,97 34,97 "
       class="l49d0" />
    <polygon
       id="polygon162"
       points="6,94 2,94 2,51 6,51 "
       class="l49d0" />
    <polygon
       id="polygon164"
       points="19,97 15,97 15,54 19,54 "
       class="l49d0" />
    <polygon
       id="polygon166"
       points="27,94 23,94 23,74 27,74 "
       class="l49d0" />
    <polygon
       id="polygon168"
       points="30,74 24,74 24,71 30,71 "
       class="l49d0" />
    <polygon
       id="polygon170"
       points="23,51 2,51 2,48 23,48 "
       class="l49d0" />
    <polygon
       id="polygon172"
       points="23,48 19,48 19,47 23,47 "
       class="l49d0" />
    <polygon
       id="polygon174"
       points="30,71 27,71 27,47 30,47 "
       class="l49d0" />
    <polygon
       id="polygon176"
       points="22,47 19,47 19,39 22,39 "
       class="l49d0" />
    <polygon
       id="polygon178"
       points="30,47 26,47 26,43 30,43 "
       class="l49d0" />
    <polygon
       id="polygon180"
       points="14,37 10,37 10,33 14,33 "
       class="l49d0" />
    <polygon
       id="polygon182"
       points="24,39 19,39 19,36 24,36 "
       class="l49d0" />
    <polygon
       id="polygon184"
       points="18,33 11,33 11,29 18,29 "
       class="l49d0" />
    <polygon
       id="polygon186"
       points="6,27 2,27 2,19 6,19 "
       class="l49d0" />
    <polygon
       id="polygon188"
       points="24,36 21,36 21,24 24,24 "
       class="l49d0" />
    <polygon
       id="polygon190"
       points="24,24 11,24 11,21 24,21 "
       class="l49d0" />
    <polygon
       id="polygon192"
       points="14,21 11,21 11,16 14,16 "
       class="l49d0" />
    <polygon
       id="polygon194"
       points="30,43 27,43 27,16 30,16 "
       class="l49d0" />
    <polygon
       id="polygon196"
       points="6,16 2,16 2,3 6,3 "
       class="l49d0" />
    <polygon
       id="polygon198"
       points="14,16 10,16 10,6 14,6 "
       class="l49d0" />
    <polygon
       id="polygon200"
       points="22,16 18,16 18,3 22,3 "
       class="l49d0" />
    <polygon
       id="polygon202"
       points="30,16 26,16 26,6 30,6 "
       class="l49d0" />
    <polygon
       id="polygon204"
       points="34,3 -2,3 -2,-3 34,-3 "
       class="l49d0" />
    <polygon
       id="polygon206"
       points="30,47 26,47 26,43 30,43 "
       class="l81d0" />
    <polygon
       id="polygon208"
       points="14,37 10,37 10,33 14,33 "
       class="l81d0" />
    <polygon
       id="polygon210"
       points="6,27 2,27 2,23 6,23 "
       class="l81d0" />
  </g>
</svg>
