<?xml version="1.0" encoding="UTF-8" standalone="no"?>
<svg
   xmlns:dc="http://purl.org/dc/elements/1.1/"
   xmlns:cc="http://creativecommons.org/ns#"
   xmlns:rdf="http://www.w3.org/1999/02/22-rdf-syntax-ns#"
   xmlns:svg="http://www.w3.org/2000/svg"
   xmlns="http://www.w3.org/2000/svg"
   xmlns:sodipodi="http://sodipodi.sourceforge.net/DTD/sodipodi-0.dtd"
   xmlns:inkscape="http://www.inkscape.org/namespaces/inkscape"
   width="99"
   height="110"
   viewBox="-13.5 -110.5 99 110"
   version="1.1"
   id="svg471"
   sodipodi:docname="POR2X1.svg"
   inkscape:version="1.0.1 (3bc2e813f5, 2020-09-07)">
  <metadata
     id="metadata475">
    <rdf:RDF>
      <cc:Work
         rdf:about="">
        <dc:format>image/svg+xml</dc:format>
        <dc:type
           rdf:resource="http://purl.org/dc/dcmitype/StillImage" />
        <dc:title></dc:title>
      </cc:Work>
    </rdf:RDF>
  </metadata>
  <sodipodi:namedview
     pagecolor="#ffffff"
     bordercolor="#666666"
     borderopacity="1"
     objecttolerance="10"
     gridtolerance="10"
     guidetolerance="10"
     inkscape:pageopacity="0"
     inkscape:pageshadow="2"
     inkscape:window-width="1916"
     inkscape:window-height="1041"
     id="namedview473"
     showgrid="false"
     inkscape:zoom="7.4958678"
     inkscape:cx="2.7946187"
     inkscape:cy="50.422062"
     inkscape:window-x="1680"
     inkscape:window-y="18"
     inkscape:window-maximized="0"
     inkscape:current-layer="svg471"
     inkscape:document-rotation="0"
     fit-margin-top="0"
     fit-margin-left="0"
     fit-margin-right="0"
     fit-margin-bottom="0" />
  <defs
     id="defs26">
    <style
       type="text/css"
       id="style2">
.l41d0 {fill: white; stroke: none; }
.l42d0 {font-variation-settings: normal; opacity: 1; vector-effect: none; fill: url(#NwellPattern); fill-opacity: 1; stroke: #000000; stroke-width: 0.0mm; stroke-linecap: butt; stroke-linejoin: miter; stroke-miterlimit: 4; stroke-dasharray: none; stroke-dashoffset: 0; stroke-opacity: 1; stop-color: #000000; stop-opacity: 1; }
.l43d0 {fill: gray; stroke: gray; opacity: 0.8; }
.l47d0 {fill: #db00c8; stroke: #3800b9; opacity: 1.0; }
.l48d0 {fill: white; stroke: black; }
.l50d0 {fill: #ff00ff; stroke: #0000ff; opacity: 1.0; }
.l46d0 {fill: #bf1500; stroke: #bf1500; opacity: 0.9; }
.l49d0 {font-variation-settings: normal; opacity: 1; vector-effect: none; fill: url(#M1Pattern); fill-opacity: 1; stroke: #000000; stroke-width: 0.0mm; stroke-linecap: butt; stroke-linejoin: miter; stroke-miterlimit: 4; stroke-dasharray: none; stroke-dashoffset: 0; stroke-opacity: 1; stop-color: #000000; stop-opacity: 1; }
.l51d0 {font-variation-settings: normal; opacity: 1; vector-effect: none; fill: url(#M2Pattern); fill-opacity: 1; stroke: #000000; stroke-width: 0.0mm; stroke-linecap: butt; stroke-linejoin: miter; stroke-miterlimit: 4; stroke-dasharray: none; stroke-dashoffset: 0; stroke-opacity: 1; stop-color: #000000; stop-opacity: 1; }
.l31d0 {fill: white; opacity: 0.0; }
.l44d0 {fill: #fba940; stroke: none; opacity: 0.0; }
.l45d0 {fill: #8aff4a; stroke: none; opacity: 0.0; }
</style>
    <pattern
       id="M1Pattern"
       inkscape:stockid="M1 pattern"
       x="0"
       y="0"
       width="0.7086614173228347"
       height="0.7086614173228347"
       patternUnits="userSpaceOnUse">
      <path
         style="stroke:#4da5ff;stroke-width:0.05mm"
         d="M -3.5433070866141736,4.251968503937008 4.251968503937008,-3.5433070866141736"
         id="path4" />
      <path
         style="stroke:#4da5ff;stroke-width:0.05mm"
         d="M -3.5433070866141736,-3.5433070866141736 4.251968503937008,4.251968503937008"
         id="path6" />
    </pattern>
    <pattern
       id="M2Pattern"
       inkscape:stockid="M2 pattern"
       x="0"
       y="0"
       width="0.7086614173228347"
       height="0.7086614173228347"
       patternUnits="userSpaceOnUse">
      <path
         style="stroke:#e28bff;stroke-width:0.05mm"
         d="M -3.5433070866141736,4.251968503937008 4.251968503937008,-3.5433070866141736"
         id="path9" />
      <path
         style="stroke:#e28bff;stroke-width:0.05mm"
         d="M -3.5433070866141736,-3.5433070866141736 4.251968503937008,4.251968503937008"
         id="path11" />
    </pattern>
    <pattern
       id="DiffusionPattern"
       inkscape:stockid="Cross hatch 0.2"
       x="0"
       y="0"
       width="0.8427451996082276"
       height="0.8427451996082276"
       patternUnits="userSpaceOnUse">
      <path
         style="stroke:#000000;stroke-width:0.05mm"
         d="M -3.5433070866141736,4.386052286222402 4.386052286222402,-3.5433070866141736"
         id="path14" />
      <path
         style="stroke:#000000;stroke-width:0.05mm"
         d="M -3.5433070866141736,-3.5433070866141736 4.386052286222402,4.386052286222402"
         id="path16" />
    </pattern>
    <pattern
       id="NwellPattern"
       inkscape:stockid="Hatch 0.4 x 45°"
       x="0"
       y="0"
       width="2.0043971750169858"
       height="2.0043971750169858"
       patternUnits="userSpaceOnUse">
      <path
         style="stroke:#000000;stroke-width:0.05mm"
         d="M -3.5433070866141736,3.5433070866141736 3.5433070866141736,-3.5433070866141736"
         id="path19" />
      <path
         style="stroke:#000000;stroke-width:0.05mm"
         d="M -3.5433070866141736,5.547704261631159 5.547704261631159,-3.5433070866141736"
         id="path21" />
      <path
         style="stroke:#000000;stroke-width:0.05mm"
         d="M -1.5389099115971878,5.547704261631159 5.547704261631159,-1.5389099115971878"
         id="path23" />
    </pattern>
  </defs>
  <polygon
     class="l42d0"
     points="91,105 -8,105 -8,48 91,48 "
     id="polygon28"
     transform="rotate(180,38.75,-2.7499998)" />
  <polygon
     class="l41d0"
     points="78,48 54,48 54,33 78,33 "
     id="polygon30"
     transform="rotate(180,38.75,-2.7499998)" />
  <polygon
     class="l41d0"
     points="46,33 22,33 22,17 46,17 "
     id="polygon32"
     transform="rotate(180,38.75,-2.7499998)" />
  <polygon
     class="l41d0"
     points="86,33 54,33 54,17 86,17 "
     id="polygon34"
     transform="rotate(180,38.75,-2.7499998)" />
  <polygon
     class="l41d0"
     points="86,17 -2,17 -2,5 86,5 "
     id="polygon36"
     transform="rotate(180,38.75,-2.7499998)" />
  <polygon
     class="l41d0"
     points="86,5 -5,5 -5,1 86,1 "
     id="polygon38"
     transform="rotate(180,38.75,-2.7499998)" />
  <polygon
     class="l41d0"
     points="5,1 -5,1 -5,-5 5,-5 "
     id="polygon40"
     transform="rotate(180,38.75,-2.7499998)" />
  <polygon
     class="l41d0"
     points="24,1 14,1 14,-5 24,-5 "
     id="polygon42"
     transform="rotate(180,38.75,-2.7499998)" />
  <polygon
     class="l45d0"
     points="4,104 -4,104 -4,96 4,96 "
     id="polygon44"
     transform="rotate(180,38.75,-2.7499998)" />
  <polygon
     class="l45d0"
     points="34,104 26,104 26,96 34,96 "
     id="polygon46"
     transform="rotate(180,38.75,-2.7499998)" />
  <polygon
     class="l45d0"
     points="74,44 58,44 58,29 74,29 "
     id="polygon48"
     transform="rotate(180,38.75,-2.7499998)" />
  <polygon
     class="l45d0"
     points="42,29 26,29 26,13 42,13 "
     id="polygon50"
     transform="rotate(180,38.75,-2.7499998)" />
  <polygon
     class="l45d0"
     points="82,29 58,29 58,13 82,13 "
     id="polygon52"
     transform="rotate(180,38.75,-2.7499998)" />
  <polygon
     class="l45d0"
     points="82,13 2,13 2,5 82,5 "
     id="polygon54"
     transform="rotate(180,38.75,-2.7499998)" />
  <polygon
     class="l44d0"
     points="82,95 5,95 5,87 82,87 "
     id="polygon56"
     transform="rotate(180,38.75,-2.7499998)" />
  <polygon
     class="l44d0"
     points="58,87 5,87 5,84 58,84 "
     id="polygon58"
     transform="rotate(180,38.75,-2.7499998)" />
  <polygon
     class="l44d0"
     points="58,84 26,84 26,58 58,58 "
     id="polygon60"
     transform="rotate(180,38.75,-2.7499998)" />
  <polygon
     class="l44d0"
     points="58,58 42,58 42,52 58,52 "
     id="polygon62"
     transform="rotate(180,38.75,-2.7499998)" />
  <polygon
     class="l44d0"
     points="82,87 66,87 66,52 82,52 "
     id="polygon64"
     transform="rotate(180,38.75,-2.7499998)" />
  <polygon
     class="l44d0"
     points="4,4 -4,4 -4,-4 4,-4 "
     id="polygon66"
     transform="rotate(180,38.75,-2.7499998)" />
  <polygon
     class="l44d0"
     points="23,4 15,4 15,-4 23,-4 "
     id="polygon68"
     transform="rotate(180,38.75,-2.7499998)" />
  <polygon
     class="l43d0"
     points="2,102 -2,102 -2,98 2,98 "
     id="polygon70"
     transform="rotate(180,38.75,-2.7499998)" />
  <polygon
     class="l43d0"
     points="32,102 28,102 28,98 32,98 "
     id="polygon72"
     transform="rotate(180,38.75,-2.7499998)" />
  <polygon
     class="l43d0"
     points="40,93 7,93 7,86 40,86 "
     id="polygon74"
     transform="rotate(180,38.75,-2.7499998)" />
  <polygon
     class="l43d0"
     points="40,86 28,86 28,60 40,60 "
     id="polygon76"
     transform="rotate(180,38.75,-2.7499998)" />
  <polygon
     class="l43d0"
     points="56,93 44,93 44,54 56,54 "
     id="polygon78"
     transform="rotate(180,38.75,-2.7499998)" />
  <polygon
     class="l43d0"
     points="80,93 60,93 60,89 80,89 "
     id="polygon80"
     transform="rotate(180,38.75,-2.7499998)" />
  <polygon
     class="l43d0"
     points="80,89 68,89 68,54 80,54 "
     id="polygon82"
     transform="rotate(180,38.75,-2.7499998)" />
  <polygon
     class="l43d0"
     points="72,42 60,42 60,27 72,27 "
     id="polygon84"
     transform="rotate(180,38.75,-2.7499998)" />
  <polygon
     class="l43d0"
     points="40,27 28,27 28,11 40,11 "
     id="polygon86"
     transform="rotate(180,38.75,-2.7499998)" />
  <polygon
     class="l43d0"
     points="40,11 4,11 4,7 40,7 "
     id="polygon88"
     transform="rotate(180,38.75,-2.7499998)" />
  <polygon
     class="l43d0"
     points="56,11 44,11 44,7 56,7 "
     id="polygon90"
     transform="rotate(180,38.75,-2.7499998)" />
  <polygon
     class="l43d0"
     points="80,27 60,27 60,7 80,7 "
     id="polygon92"
     transform="rotate(180,38.75,-2.7499998)" />
  <polygon
     class="l43d0"
     points="2,2 -2,2 -2,-2 2,-2 "
     id="polygon94"
     transform="rotate(180,38.75,-2.7499998)" />
  <polygon
     class="l43d0"
     points="21,2 17,2 17,-2 21,-2 "
     id="polygon96"
     transform="rotate(180,38.75,-2.7499998)" />
  <polygon
     class="l48d0"
     points="1,101 -1,101 -1,99 1,99 "
     id="polygon98"
     transform="rotate(180,38.75,-2.7499998)" />
  <polygon
     class="l48d0"
     points="31,101 29,101 29,99 31,99 "
     id="polygon100"
     transform="rotate(180,38.75,-2.7499998)" />
  <polygon
     class="l48d0"
     points="63,40.5 61,40.5 61,38.5 63,38.5 "
     id="polygon102"
     transform="rotate(180,38.75,-2.7499998)" />
  <polygon
     class="l48d0"
     points="71,40.5 69,40.5 69,38.5 71,38.5 "
     id="polygon104"
     transform="rotate(180,38.75,-2.7499998)" />
  <polygon
     class="l48d0"
     points="63,35.5 61,35.5 61,33.5 63,33.5 "
     id="polygon106"
     transform="rotate(180,38.75,-2.7499998)" />
  <polygon
     class="l48d0"
     points="71,35.5 69,35.5 69,33.5 71,33.5 "
     id="polygon108"
     transform="rotate(180,38.75,-2.7499998)" />
  <polygon
     class="l48d0"
     points="63,30.5 61,30.5 61,28.5 63,28.5 "
     id="polygon110"
     transform="rotate(180,38.75,-2.7499998)" />
  <polygon
     class="l48d0"
     points="71,30.5 69,30.5 69,28.5 71,28.5 "
     id="polygon112"
     transform="rotate(180,38.75,-2.7499998)" />
  <polygon
     class="l48d0"
     points="31,25.5 29,25.5 29,23.5 31,23.5 "
     id="polygon114"
     transform="rotate(180,38.75,-2.7499998)" />
  <polygon
     class="l48d0"
     points="39,25.5 37,25.5 37,23.5 39,23.5 "
     id="polygon116"
     transform="rotate(180,38.75,-2.7499998)" />
  <polygon
     class="l48d0"
     points="63,25.5 61,25.5 61,23.5 63,23.5 "
     id="polygon118"
     transform="rotate(180,38.75,-2.7499998)" />
  <polygon
     class="l48d0"
     points="71,25.5 69,25.5 69,23.5 71,23.5 "
     id="polygon120"
     transform="rotate(180,38.75,-2.7499998)" />
  <polygon
     class="l48d0"
     points="79,25.5 77,25.5 77,23.5 79,23.5 "
     id="polygon122"
     transform="rotate(180,38.75,-2.7499998)" />
  <polygon
     class="l48d0"
     points="31,20.5 29,20.5 29,18.5 31,18.5 "
     id="polygon124"
     transform="rotate(180,38.75,-2.7499998)" />
  <polygon
     class="l48d0"
     points="39,20.5 37,20.5 37,18.5 39,18.5 "
     id="polygon126"
     transform="rotate(180,38.75,-2.7499998)" />
  <polygon
     class="l48d0"
     points="63,20.5 61,20.5 61,18.5 63,18.5 "
     id="polygon128"
     transform="rotate(180,38.75,-2.7499998)" />
  <polygon
     class="l48d0"
     points="71,20.5 69,20.5 69,18.5 71,18.5 "
     id="polygon130"
     transform="rotate(180,38.75,-2.7499998)" />
  <polygon
     class="l48d0"
     points="79,20.5 77,20.5 77,18.5 79,18.5 "
     id="polygon132"
     transform="rotate(180,38.75,-2.7499998)" />
  <polygon
     class="l48d0"
     points="31,15.5 29,15.5 29,13.5 31,13.5 "
     id="polygon134"
     transform="rotate(180,38.75,-2.7499998)" />
  <polygon
     class="l48d0"
     points="39,15.5 37,15.5 37,13.5 39,13.5 "
     id="polygon136"
     transform="rotate(180,38.75,-2.7499998)" />
  <polygon
     class="l48d0"
     points="63,15.5 61,15.5 61,13.5 63,13.5 "
     id="polygon138"
     transform="rotate(180,38.75,-2.7499998)" />
  <polygon
     class="l48d0"
     points="71,15.5 69,15.5 69,13.5 71,13.5 "
     id="polygon140"
     transform="rotate(180,38.75,-2.7499998)" />
  <polygon
     class="l48d0"
     points="79,15.5 77,15.5 77,13.5 79,13.5 "
     id="polygon142"
     transform="rotate(180,38.75,-2.7499998)" />
  <polygon
     class="l48d0"
     points="7,10 5,10 5,8 7,8 "
     id="polygon144"
     transform="rotate(180,38.75,-2.7499998)" />
  <polygon
     class="l48d0"
     points="15,10 13,10 13,8 15,8 "
     id="polygon146"
     transform="rotate(180,38.75,-2.7499998)" />
  <polygon
     class="l48d0"
     points="23,10 21,10 21,8 23,8 "
     id="polygon148"
     transform="rotate(180,38.75,-2.7499998)" />
  <polygon
     class="l48d0"
     points="31,10.5 29,10.5 29,8.5 31,8.5 "
     id="polygon150"
     transform="rotate(180,38.75,-2.7499998)" />
  <polygon
     class="l48d0"
     points="39,10.5 37,10.5 37,8.5 39,8.5 "
     id="polygon152"
     transform="rotate(180,38.75,-2.7499998)" />
  <polygon
     class="l48d0"
     points="47,10 45,10 45,8 47,8 "
     id="polygon154"
     transform="rotate(180,38.75,-2.7499998)" />
  <polygon
     class="l48d0"
     points="55,10 53,10 53,8 55,8 "
     id="polygon156"
     transform="rotate(180,38.75,-2.7499998)" />
  <polygon
     class="l48d0"
     points="63,10.5 61,10.5 61,8.5 63,8.5 "
     id="polygon158"
     transform="rotate(180,38.75,-2.7499998)" />
  <polygon
     class="l48d0"
     points="71,10.5 69,10.5 69,8.5 71,8.5 "
     id="polygon160"
     transform="rotate(180,38.75,-2.7499998)" />
  <polygon
     class="l48d0"
     points="79,10.5 77,10.5 77,8.5 79,8.5 "
     id="polygon162"
     transform="rotate(180,38.75,-2.7499998)" />
  <polygon
     class="l48d0"
     points="10,90.5 8,90.5 8,88.5 10,88.5 "
     id="polygon164"
     transform="rotate(180,38.75,-2.7499998)" />
  <polygon
     class="l48d0"
     points="23,90.5 21,90.5 21,88.5 23,88.5 "
     id="polygon166"
     transform="rotate(180,38.75,-2.7499998)" />
  <polygon
     class="l48d0"
     points="47,92 45,92 45,90 47,90 "
     id="polygon168"
     transform="rotate(180,38.75,-2.7499998)" />
  <polygon
     class="l48d0"
     points="55,92 53,92 53,90 55,90 "
     id="polygon170"
     transform="rotate(180,38.75,-2.7499998)" />
  <polygon
     class="l48d0"
     points="63,92 61,92 61,90 63,90 "
     id="polygon172"
     transform="rotate(180,38.75,-2.7499998)" />
  <polygon
     class="l48d0"
     points="71,92 69,92 69,90 71,90 "
     id="polygon174"
     transform="rotate(180,38.75,-2.7499998)" />
  <polygon
     class="l48d0"
     points="79,92 77,92 77,90 79,90 "
     id="polygon176"
     transform="rotate(180,38.75,-2.7499998)" />
  <polygon
     class="l48d0"
     points="31,90 29,90 29,88 31,88 "
     id="polygon178"
     transform="rotate(180,38.75,-2.7499998)" />
  <polygon
     class="l48d0"
     points="39,90 37,90 37,88 39,88 "
     id="polygon180"
     transform="rotate(180,38.75,-2.7499998)" />
  <polygon
     class="l48d0"
     points="47,87 45,87 45,85 47,85 "
     id="polygon182"
     transform="rotate(180,38.75,-2.7499998)" />
  <polygon
     class="l48d0"
     points="55,87 53,87 53,85 55,85 "
     id="polygon184"
     transform="rotate(180,38.75,-2.7499998)" />
  <polygon
     class="l48d0"
     points="71,87 69,87 69,85 71,85 "
     id="polygon186"
     transform="rotate(180,38.75,-2.7499998)" />
  <polygon
     class="l48d0"
     points="79,87 77,87 77,85 79,85 "
     id="polygon188"
     transform="rotate(180,38.75,-2.7499998)" />
  <polygon
     class="l48d0"
     points="31,85 29,85 29,83 31,83 "
     id="polygon190"
     transform="rotate(180,38.75,-2.7499998)" />
  <polygon
     class="l48d0"
     points="39,85 37,85 37,83 39,83 "
     id="polygon192"
     transform="rotate(180,38.75,-2.7499998)" />
  <polygon
     class="l48d0"
     points="47,82 45,82 45,80 47,80 "
     id="polygon194"
     transform="rotate(180,38.75,-2.7499998)" />
  <polygon
     class="l48d0"
     points="55,82 53,82 53,80 55,80 "
     id="polygon196"
     transform="rotate(180,38.75,-2.7499998)" />
  <polygon
     class="l48d0"
     points="71,82 69,82 69,80 71,80 "
     id="polygon198"
     transform="rotate(180,38.75,-2.7499998)" />
  <polygon
     class="l48d0"
     points="79,82 77,82 77,80 79,80 "
     id="polygon200"
     transform="rotate(180,38.75,-2.7499998)" />
  <polygon
     class="l48d0"
     points="31,80 29,80 29,78 31,78 "
     id="polygon202"
     transform="rotate(180,38.75,-2.7499998)" />
  <polygon
     class="l48d0"
     points="39,80 37,80 37,78 39,78 "
     id="polygon204"
     transform="rotate(180,38.75,-2.7499998)" />
  <polygon
     class="l48d0"
     points="47,77 45,77 45,75 47,75 "
     id="polygon206"
     transform="rotate(180,38.75,-2.7499998)" />
  <polygon
     class="l48d0"
     points="55,77 53,77 53,75 55,75 "
     id="polygon208"
     transform="rotate(180,38.75,-2.7499998)" />
  <polygon
     class="l48d0"
     points="71,77 69,77 69,75 71,75 "
     id="polygon210"
     transform="rotate(180,38.75,-2.7499998)" />
  <polygon
     class="l48d0"
     points="79,77 77,77 77,75 79,75 "
     id="polygon212"
     transform="rotate(180,38.75,-2.7499998)" />
  <polygon
     class="l48d0"
     points="31,75 29,75 29,73 31,73 "
     id="polygon214"
     transform="rotate(180,38.75,-2.7499998)" />
  <polygon
     class="l48d0"
     points="39,75 37,75 37,73 39,73 "
     id="polygon216"
     transform="rotate(180,38.75,-2.7499998)" />
  <polygon
     class="l48d0"
     points="47,72 45,72 45,70 47,70 "
     id="polygon218"
     transform="rotate(180,38.75,-2.7499998)" />
  <polygon
     class="l48d0"
     points="55,72 53,72 53,70 55,70 "
     id="polygon220"
     transform="rotate(180,38.75,-2.7499998)" />
  <polygon
     class="l48d0"
     points="71,72 69,72 69,70 71,70 "
     id="polygon222"
     transform="rotate(180,38.75,-2.7499998)" />
  <polygon
     class="l48d0"
     points="79,72 77,72 77,70 79,70 "
     id="polygon224"
     transform="rotate(180,38.75,-2.7499998)" />
  <polygon
     class="l48d0"
     points="31,70 29,70 29,68 31,68 "
     id="polygon226"
     transform="rotate(180,38.75,-2.7499998)" />
  <polygon
     class="l48d0"
     points="39,70 37,70 37,68 39,68 "
     id="polygon228"
     transform="rotate(180,38.75,-2.7499998)" />
  <polygon
     class="l48d0"
     points="47,67 45,67 45,65 47,65 "
     id="polygon230"
     transform="rotate(180,38.75,-2.7499998)" />
  <polygon
     class="l48d0"
     points="55,67 53,67 53,65 55,65 "
     id="polygon232"
     transform="rotate(180,38.75,-2.7499998)" />
  <polygon
     class="l48d0"
     points="71,67 69,67 69,65 71,65 "
     id="polygon234"
     transform="rotate(180,38.75,-2.7499998)" />
  <polygon
     class="l48d0"
     points="79,67 77,67 77,65 79,65 "
     id="polygon236"
     transform="rotate(180,38.75,-2.7499998)" />
  <polygon
     class="l48d0"
     points="31,65 29,65 29,63 31,63 "
     id="polygon238"
     transform="rotate(180,38.75,-2.7499998)" />
  <polygon
     class="l48d0"
     points="39,65 37,65 37,63 39,63 "
     id="polygon240"
     transform="rotate(180,38.75,-2.7499998)" />
  <polygon
     class="l48d0"
     points="47,62 45,62 45,60 47,60 "
     id="polygon242"
     transform="rotate(180,38.75,-2.7499998)" />
  <polygon
     class="l48d0"
     points="55,62 53,62 53,60 55,60 "
     id="polygon244"
     transform="rotate(180,38.75,-2.7499998)" />
  <polygon
     class="l48d0"
     points="71,62 69,62 69,60 71,60 "
     id="polygon246"
     transform="rotate(180,38.75,-2.7499998)" />
  <polygon
     class="l48d0"
     points="79,62 77,62 77,60 79,60 "
     id="polygon248"
     transform="rotate(180,38.75,-2.7499998)" />
  <polygon
     class="l48d0"
     points="47,57 45,57 45,55 47,55 "
     id="polygon250"
     transform="rotate(180,38.75,-2.7499998)" />
  <polygon
     class="l48d0"
     points="55,57 53,57 53,55 55,55 "
     id="polygon252"
     transform="rotate(180,38.75,-2.7499998)" />
  <polygon
     class="l48d0"
     points="71,57 69,57 69,55 71,55 "
     id="polygon254"
     transform="rotate(180,38.75,-2.7499998)" />
  <polygon
     class="l48d0"
     points="79,57 77,57 77,55 79,55 "
     id="polygon256"
     transform="rotate(180,38.75,-2.7499998)" />
  <polygon
     class="l48d0"
     points="1,1 -1,1 -1,-1 1,-1 "
     id="polygon258"
     transform="rotate(180,38.75,-2.7499998)" />
  <polygon
     class="l48d0"
     points="20,1 18,1 18,-1 20,-1 "
     id="polygon260"
     transform="rotate(180,38.75,-2.7499998)" />
  <polygon
     class="l46d0"
     points="14,95 12,95 12,53 14,53 "
     id="polygon262"
     transform="rotate(180,38.75,-2.7499998)" />
  <polygon
     class="l46d0"
     points="14,53 9,53 9,49 14,49 "
     id="polygon264"
     transform="rotate(180,38.75,-2.7499998)" />
  <polygon
     class="l46d0"
     points="11,49 9,49 9,5 11,5 "
     id="polygon266"
     transform="rotate(180,38.75,-2.7499998)" />
  <polygon
     class="l46d0"
     points="19,95 17,95 17,41 19,41 "
     id="polygon268"
     transform="rotate(180,38.75,-2.7499998)" />
  <polygon
     class="l46d0"
     points="27,95 25,95 25,57 27,57 "
     id="polygon270"
     transform="rotate(180,38.75,-2.7499998)" />
  <polygon
     class="l46d0"
     points="29,57 25,57 25,53 29,53 "
     id="polygon272"
     transform="rotate(180,38.75,-2.7499998)" />
  <polygon
     class="l46d0"
     points="35,95 33,95 33,50 35,50 "
     id="polygon274"
     transform="rotate(180,38.75,-2.7499998)" />
  <polygon
     class="l46d0"
     points="51,95 49,95 49,50 51,50 "
     id="polygon276"
     transform="rotate(180,38.75,-2.7499998)" />
  <polygon
     class="l46d0"
     points="51,50 25,50 25,48 51,48 "
     id="polygon278"
     transform="rotate(180,38.75,-2.7499998)" />
  <polygon
     class="l46d0"
     points="21,41 17,41 17,37 21,37 "
     id="polygon280"
     transform="rotate(180,38.75,-2.7499998)" />
  <polygon
     class="l46d0"
     points="19,37 17,37 17,5 19,5 "
     id="polygon282"
     transform="rotate(180,38.75,-2.7499998)" />
  <polygon
     class="l46d0"
     points="27,48 25,48 25,5 27,5 "
     id="polygon284"
     transform="rotate(180,38.75,-2.7499998)" />
  <polygon
     class="l46d0"
     points="54,48 49,48 49,44 54,44 "
     id="polygon286"
     transform="rotate(180,38.75,-2.7499998)" />
  <polygon
     class="l46d0"
     points="46,43 33,43 33,41 46,41 "
     id="polygon288"
     transform="rotate(180,38.75,-2.7499998)" />
  <polygon
     class="l46d0"
     points="35,41 33,41 33,5 35,5 "
     id="polygon290"
     transform="rotate(180,38.75,-2.7499998)" />
  <polygon
     class="l46d0"
     points="46,41 42,41 42,39 46,39 "
     id="polygon292"
     transform="rotate(180,38.75,-2.7499998)" />
  <polygon
     class="l46d0"
     points="51,44 49,44 49,5 51,5 "
     id="polygon294"
     transform="rotate(180,38.75,-2.7499998)" />
  <polygon
     class="l46d0"
     points="67,95 65,95 65,2 67,2 "
     id="polygon296"
     transform="rotate(180,38.75,-2.7499998)" />
  <polygon
     class="l46d0"
     points="75,95 73,95 73,49 75,49 "
     id="polygon298"
     transform="rotate(180,38.75,-2.7499998)" />
  <polygon
     class="l46d0"
     points="75,49 70,49 70,45 75,45 "
     id="polygon300"
     transform="rotate(180,38.75,-2.7499998)" />
  <polygon
     class="l46d0"
     points="75,45 73,45 73,5 75,5 "
     id="polygon302"
     transform="rotate(180,38.75,-2.7499998)" />
  <polygon
     class="l46d0"
     points="68,2 64,2 64,-2 68,-2 "
     id="polygon304"
     transform="rotate(180,38.75,-2.7499998)" />
  <polygon
     class="l47d0"
     points="28,56 26,56 26,54 28,54 "
     id="polygon306"
     transform="rotate(180,38.75,-2.7499998)" />
  <polygon
     class="l47d0"
     points="13,52 11,52 11,50 13,50 "
     id="polygon308"
     transform="rotate(180,38.75,-2.7499998)" />
  <polygon
     class="l47d0"
     points="53,47 51,47 51,45 53,45 "
     id="polygon310"
     transform="rotate(180,38.75,-2.7499998)" />
  <polygon
     class="l47d0"
     points="73,48 71,48 71,46 73,46 "
     id="polygon312"
     transform="rotate(180,38.75,-2.7499998)" />
  <polygon
     class="l47d0"
     points="45,42 43,42 43,40 45,40 "
     id="polygon314"
     transform="rotate(180,38.75,-2.7499998)" />
  <polygon
     class="l47d0"
     points="20,40 18,40 18,38 20,38 "
     id="polygon316"
     transform="rotate(180,38.75,-2.7499998)" />
  <polygon
     class="l47d0"
     points="67,1 65,1 65,-1 67,-1 "
     id="polygon318"
     transform="rotate(180,38.75,-2.7499998)" />
  <polygon
     class="l50d0"
     points="28,48 26,48 26,46 28,46 "
     id="polygon320"
     transform="rotate(180,38.75,-2.7499998)" />
  <polygon
     class="l50d0"
     points="73,48 71,48 71,46 73,46 "
     id="polygon322"
     transform="rotate(180,38.75,-2.7499998)" />
  <polygon
     class="l49d0"
     points="85,103 -2,103 -2,97 85,97 "
     id="polygon324"
     transform="rotate(180,38.75,-2.7499998)" />
  <polygon
     class="l49d0"
     points="11,97 7,97 7,86 11,86 "
     id="polygon326"
     transform="rotate(180,38.75,-2.7499998)" />
  <polygon
     class="l49d0"
     points="24,93 20,93 20,86 24,86 "
     id="polygon328"
     transform="rotate(180,38.75,-2.7499998)" />
  <polygon
     class="l49d0"
     points="32,93 28,93 28,64 32,64 "
     id="polygon330"
     transform="rotate(180,38.75,-2.7499998)" />
  <polygon
     class="l49d0"
     points="32,64 18,64 18,60 32,60 "
     id="polygon332"
     transform="rotate(180,38.75,-2.7499998)" />
  <polygon
     class="l49d0"
     points="40,97 36,97 36,60 40,60 "
     id="polygon334"
     transform="rotate(180,38.75,-2.7499998)" />
  <polygon
     class="l49d0"
     points="14,57 5,57 5,49 14,49 "
     id="polygon336"
     transform="rotate(180,38.75,-2.7499998)" />
  <polygon
     class="l49d0"
     points="22,60 18,60 18,49 22,49 "
     id="polygon338"
     transform="rotate(180,38.75,-2.7499998)" />
  <polygon
     class="l49d0"
     points="48,93 43,93 43,57 48,57 "
     id="polygon340"
     transform="rotate(180,38.75,-2.7499998)" />
  <polygon
     class="l49d0"
     points="48,57 25,57 25,54 48,54 "
     id="polygon342"
     transform="rotate(180,38.75,-2.7499998)" />
  <polygon
     class="l49d0"
     points="56,97 52,97 52,54 56,54 "
     id="polygon344"
     transform="rotate(180,38.75,-2.7499998)" />
  <polygon
     class="l49d0"
     points="47,54 25,54 25,53 47,53 "
     id="polygon346"
     transform="rotate(180,38.75,-2.7499998)" />
  <polygon
     class="l49d0"
     points="32,49 18,49 18,45 32,45 "
     id="polygon348"
     transform="rotate(180,38.75,-2.7499998)" />
  <polygon
     class="l49d0"
     points="21,41 9,41 9,33 21,33 "
     id="polygon350"
     transform="rotate(180,38.75,-2.7499998)" />
  <polygon
     class="l49d0"
     points="24,27 4,27 4,23 24,23 "
     id="polygon352"
     transform="rotate(180,38.75,-2.7499998)" />
  <polygon
     class="l49d0"
     points="8,23 4,23 4,7 8,7 "
     id="polygon354"
     transform="rotate(180,38.75,-2.7499998)" />
  <polygon
     class="l49d0"
     points="16,11 12,11 12,3 16,3 "
     id="polygon356"
     transform="rotate(180,38.75,-2.7499998)" />
  <polygon
     class="l49d0"
     points="24,23 20,23 20,7 24,7 "
     id="polygon358"
     transform="rotate(180,38.75,-2.7499998)" />
  <polygon
     class="l49d0"
     points="32,45 28,45 28,7 32,7 "
     id="polygon360"
     transform="rotate(180,38.75,-2.7499998)" />
  <polygon
     class="l49d0"
     points="47,53 43,53 43,43 47,43 "
     id="polygon362"
     transform="rotate(180,38.75,-2.7499998)" />
  <polygon
     class="l49d0"
     points="64,93 60,93 60,48 64,48 "
     id="polygon364"
     transform="rotate(180,38.75,-2.7499998)" />
  <polygon
     class="l49d0"
     points="72,97 68,97 68,54 72,54 "
     id="polygon366"
     transform="rotate(180,38.75,-2.7499998)" />
  <polygon
     class="l49d0"
     points="81,93 76,93 76,54 81,54 "
     id="polygon368"
     transform="rotate(180,38.75,-2.7499998)" />
  <polygon
     class="l49d0"
     points="64,48 50,48 50,44 64,44 "
     id="polygon370"
     transform="rotate(180,38.75,-2.7499998)" />
  <polygon
     class="l49d0"
     points="74,49 69,49 69,45 74,45 "
     id="polygon372"
     transform="rotate(180,38.75,-2.7499998)" />
  <polygon
     class="l49d0"
     points="47,43 42,43 42,39 47,39 "
     id="polygon374"
     transform="rotate(180,38.75,-2.7499998)" />
  <polygon
     class="l49d0"
     points="40,27 36,27 36,3 40,3 "
     id="polygon376"
     transform="rotate(180,38.75,-2.7499998)" />
  <polygon
     class="l49d0"
     points="47,39 43,39 43,11 47,11 "
     id="polygon378"
     transform="rotate(180,38.75,-2.7499998)" />
  <polygon
     class="l49d0"
     points="48,11 43,11 43,7 48,7 "
     id="polygon380"
     transform="rotate(180,38.75,-2.7499998)" />
  <polygon
     class="l49d0"
     points="56,11 52,11 52,3 56,3 "
     id="polygon382"
     transform="rotate(180,38.75,-2.7499998)" />
  <polygon
     class="l49d0"
     points="64,44 60,44 60,7 64,7 "
     id="polygon384"
     transform="rotate(180,38.75,-2.7499998)" />
  <polygon
     class="l49d0"
     points="72,42 68,42 68,3 72,3 "
     id="polygon386"
     transform="rotate(180,38.75,-2.7499998)" />
  <polygon
     class="l49d0"
     points="81,54 77,54 77,27 81,27 "
     id="polygon388"
     transform="rotate(180,38.75,-2.7499998)" />
  <polygon
     class="l49d0"
     points="81,27 76,27 76,7 81,7 "
     id="polygon390"
     transform="rotate(180,38.75,-2.7499998)" />
  <polygon
     class="l49d0"
     points="85,3 -2,3 -2,-3 85,-3 "
     id="polygon392"
     transform="rotate(180,38.75,-2.7499998)" />
  <polygon
     class="l51d0"
     points="74,49 25,49 25,45 74,45 "
     id="polygon394"
     transform="rotate(180,38.75,-2.7499998)" />
  <polygon
     class="l31d0"
     points="58,3 52,3 52,-1 58,-1 "
     id="polygon396"
     transform="rotate(180,38.75,-2.7499998)" />
</svg>
